<?xml version="1.0" encoding="UTF-8" standalone="no"?>
<!DOCTYPE svg PUBLIC "-//W3C//DTD SVG 1.1//EN"
 "http://www.w3.org/Graphics/SVG/1.1/DTD/svg11.dtd">
<!-- Generated by graphviz version 2.34.0 (20140102.1042)
 -->
<!-- Title: controllers_diagram Pages: 1 -->
<svg width="860pt" height="481pt"
 viewBox="0.00 0.00 860.38 481.00" xmlns="http://www.w3.org/2000/svg" xmlns:xlink="http://www.w3.org/1999/xlink">
<g id="graph0" class="graph" transform="scale(1 1) rotate(0) translate(4 477)">
<title>controllers_diagram</title>
<polygon fill="white" stroke="white" points="-4,4 -4,-477 856.375,-477 856.375,4 -4,4"/>
<!-- _diagram_info -->
<g id="node1" class="node"><title>_diagram_info</title>
<text text-anchor="start" x="653" y="-456" font-family="Times,serif" font-size="13.00">Controllers diagram</text>
<text text-anchor="start" x="653" y="-440.4" font-family="Times,serif" font-size="13.00">Date: Jan 28 2014 &#45; 15:59</text>
<text text-anchor="start" x="653" y="-424.8" font-family="Times,serif" font-size="13.00">Migration version: 20140128094845</text>
<text text-anchor="start" x="653" y="-409.2" font-family="Times,serif" font-size="13.00">Generated by RailRoady 1.1.1</text>
<text text-anchor="start" x="653" y="-393.6" font-family="Times,serif" font-size="13.00">http://railroady.prestonlee.com</text>
</g>
<!-- ActivitiesController -->
<g id="node2" class="node"><title>ActivitiesController</title>
<ellipse fill="none" stroke="black" cx="88.2779" cy="-292.59" rx="88.0564" ry="18"/>
<text text-anchor="middle" x="88.2779" y="-286.99" font-family="Times,serif" font-size="14.00">ActivitiesController</text>
</g>
<!-- ApplicationController -->
<g id="node3" class="node"><title>ApplicationController</title>
<ellipse fill="none" stroke="black" cx="423.522" cy="-172.381" rx="96.1448" ry="18"/>
<text text-anchor="middle" x="423.522" y="-166.781" font-family="Times,serif" font-size="14.00">ApplicationController</text>
</g>
<!-- ApplicationController&#45;&gt;ActivitiesController -->
<g id="edge1" class="edge"><title>ApplicationController&#45;&gt;ActivitiesController</title>
<path fill="none" stroke="black" d="M379.004,-188.344C316.252,-210.845 202.198,-251.741 137.161,-275.062"/>
<polyline fill="none" stroke="black" points="132.18,-276.848 136.886,-275.16 "/>
</g>
<!-- DashboardController -->
<g id="node4" class="node"><title>DashboardController</title>
<ellipse fill="none" stroke="black" cx="492.759" cy="-18" rx="92.6283" ry="18"/>
<text text-anchor="middle" x="492.759" y="-12.4" font-family="Times,serif" font-size="14.00">DashboardController</text>
</g>
<!-- ApplicationController&#45;&gt;DashboardController -->
<g id="edge2" class="edge"><title>ApplicationController&#45;&gt;DashboardController</title>
<path fill="none" stroke="black" d="M431.6,-154.369C444.196,-126.283 468.508,-72.0745 482.384,-41.1338"/>
<polyline fill="none" stroke="black" points="484.518,-36.3754 482.472,-40.9376 "/>
</g>
<!-- EmployeesController -->
<g id="node5" class="node"><title>EmployeesController</title>
<ellipse fill="none" stroke="black" cx="468.393" cy="-332.136" rx="93.7786" ry="18"/>
<text text-anchor="middle" x="468.393" y="-326.536" font-family="Times,serif" font-size="14.00">EmployeesController</text>
</g>
<!-- ApplicationController&#45;&gt;EmployeesController -->
<g id="edge3" class="edge"><title>ApplicationController&#45;&gt;EmployeesController</title>
<path fill="none" stroke="black" d="M428.582,-190.396C436.762,-219.52 452.883,-276.916 461.899,-309.015"/>
<polyline fill="none" stroke="black" points="463.282,-313.942 461.93,-309.128 "/>
</g>
<!-- FollowUpsController -->
<g id="node6" class="node"><title>FollowUpsController</title>
<ellipse fill="none" stroke="black" cx="672.119" cy="-291.897" rx="93.8164" ry="18"/>
<text text-anchor="middle" x="672.119" y="-286.297" font-family="Times,serif" font-size="14.00">FollowUpsController</text>
</g>
<!-- ApplicationController&#45;&gt;FollowUpsController -->
<g id="edge4" class="edge"><title>ApplicationController&#45;&gt;FollowUpsController</title>
<path fill="none" stroke="black" d="M458.613,-189.251C504.511,-211.317 584.71,-249.874 632.669,-272.93"/>
<polyline fill="none" stroke="black" points="637.207,-275.112 632.701,-272.946 "/>
</g>
<!-- StudentsController -->
<g id="node7" class="node"><title>StudentsController</title>
<ellipse fill="none" stroke="black" cx="276.668" cy="-298.068" rx="83.9928" ry="18"/>
<text text-anchor="middle" x="276.668" y="-292.468" font-family="Times,serif" font-size="14.00">StudentsController</text>
</g>
<!-- ApplicationController&#45;&gt;StudentsController -->
<g id="edge5" class="edge"><title>ApplicationController&#45;&gt;StudentsController</title>
<path fill="none" stroke="black" d="M402.793,-190.122C376.117,-212.953 329.827,-252.571 301.358,-276.936"/>
<polyline fill="none" stroke="black" points="297.292,-280.417 301.091,-277.165 "/>
</g>
<!-- SubjectsController -->
<g id="node8" class="node"><title>SubjectsController</title>
<ellipse fill="none" stroke="black" cx="97.3998" cy="-48.4453" rx="83.4083" ry="18"/>
<text text-anchor="middle" x="97.3998" y="-42.8453" font-family="Times,serif" font-size="14.00">SubjectsController</text>
</g>
<!-- ApplicationController&#45;&gt;SubjectsController -->
<g id="edge6" class="edge"><title>ApplicationController&#45;&gt;SubjectsController</title>
<path fill="none" stroke="black" d="M380.887,-156.178C319.553,-132.869 206.856,-90.0418 143.599,-66.0023"/>
<polyline fill="none" stroke="black" points="138.758,-64.1624 143.432,-65.9387 "/>
</g>
<!-- TicketsController -->
<g id="node9" class="node"><title>TicketsController</title>
<ellipse fill="none" stroke="black" cx="682.818" cy="-52.103" rx="78.6384" ry="18"/>
<text text-anchor="middle" x="682.818" y="-46.503" font-family="Times,serif" font-size="14.00">TicketsController</text>
</g>
<!-- ApplicationController&#45;&gt;TicketsController -->
<g id="edge7" class="edge"><title>ApplicationController&#45;&gt;TicketsController</title>
<path fill="none" stroke="black" d="M459.576,-155.657C507.837,-133.27 593.147,-93.6983 643.171,-70.4941"/>
<polyline fill="none" stroke="black" points="647.899,-68.3008 643.363,-70.4048 "/>
</g>
<!-- UsersController -->
<g id="node10" class="node"><title>UsersController</title>
<ellipse fill="none" stroke="black" cx="296.581" cy="-30.2371" rx="72.9449" ry="18"/>
<text text-anchor="middle" x="296.581" y="-24.6371" font-family="Times,serif" font-size="14.00">UsersController</text>
</g>
<!-- ApplicationController&#45;&gt;UsersController -->
<g id="edge8" class="edge"><title>ApplicationController&#45;&gt;UsersController</title>
<path fill="none" stroke="black" d="M407.445,-154.378C384.172,-128.318 341.147,-80.1406 316.09,-52.0823"/>
<polyline fill="none" stroke="black" points="312.528,-48.0935 315.858,-51.8229 "/>
</g>
</g>
</svg>
