<?xml version="1.0" encoding="UTF-8" standalone="no"?>
<!DOCTYPE svg PUBLIC "-//W3C//DTD SVG 1.1//EN"
 "http://www.w3.org/Graphics/SVG/1.1/DTD/svg11.dtd">
<!-- Generated by graphviz version 2.34.0 (20140102.1042)
 -->
<!-- Title: controllers_diagram Pages: 1 -->
<svg width="851pt" height="734pt"
 viewBox="0.00 0.00 851.38 734.23" xmlns="http://www.w3.org/2000/svg" xmlns:xlink="http://www.w3.org/1999/xlink">
<g id="graph0" class="graph" transform="scale(1 1) rotate(0) translate(4 730.225)">
<title>controllers_diagram</title>
<polygon fill="white" stroke="white" points="-4,4 -4,-730.225 847.375,-730.225 847.375,4 -4,4"/>
<!-- _diagram_info -->
<g id="node1" class="node"><title>_diagram_info</title>
<text text-anchor="start" x="644" y="-122" font-family="Times,serif" font-size="13.00">Controllers diagram</text>
<text text-anchor="start" x="644" y="-106.4" font-family="Times,serif" font-size="13.00">Date: Jan 28 2014 &#45; 15:59</text>
<text text-anchor="start" x="644" y="-90.8" font-family="Times,serif" font-size="13.00">Migration version: 20140128094845</text>
<text text-anchor="start" x="644" y="-75.2" font-family="Times,serif" font-size="13.00">Generated by RailRoady 1.1.1</text>
<text text-anchor="start" x="644" y="-59.6" font-family="Times,serif" font-size="13.00">http://railroady.prestonlee.com</text>
</g>
<!-- ActivitiesController -->
<g id="node2" class="node"><title>ActivitiesController</title>
<path fill="none" stroke="black" d="M12,-316.19C12,-316.19 115.979,-316.19 115.979,-316.19 121.979,-316.19 127.979,-322.19 127.979,-328.19 127.979,-328.19 127.979,-402.59 127.979,-402.59 127.979,-408.59 121.979,-414.59 115.979,-414.59 115.979,-414.59 12,-414.59 12,-414.59 6,-414.59 0,-408.59 0,-402.59 0,-402.59 0,-328.19 0,-328.19 0,-322.19 6,-316.19 12,-316.19"/>
<text text-anchor="middle" x="63.9897" y="-396.59" font-family="Times,serif" font-size="14.00">ActivitiesController</text>
<polyline fill="none" stroke="black" points="0,-389.79 127.979,-389.79 "/>
<text text-anchor="start" x="8" y="-371.79" font-family="Times,serif" font-size="14.00">index</text>
<polyline fill="none" stroke="black" points="0,-364.99 127.979,-364.99 "/>
<polyline fill="none" stroke="black" points="0,-340.99 127.979,-340.99 "/>
<text text-anchor="start" x="8" y="-322.99" font-family="Times,serif" font-size="14.00">_layout</text>
</g>
<!-- ApplicationController -->
<g id="node3" class="node"><title>ApplicationController</title>
<path fill="none" stroke="black" d="M191.384,-257.82C191.384,-257.82 370.019,-257.82 370.019,-257.82 376.019,-257.82 382.019,-263.82 382.019,-269.82 382.019,-269.82 382.019,-445.02 382.019,-445.02 382.019,-451.02 376.019,-457.02 370.019,-457.02 370.019,-457.02 191.384,-457.02 191.384,-457.02 185.384,-457.02 179.384,-451.02 179.384,-445.02 179.384,-445.02 179.384,-269.82 179.384,-269.82 179.384,-263.82 185.384,-257.82 191.384,-257.82"/>
<text text-anchor="middle" x="280.702" y="-439.02" font-family="Times,serif" font-size="14.00">ApplicationController</text>
<polyline fill="none" stroke="black" points="179.384,-432.22 382.019,-432.22 "/>
<text text-anchor="start" x="187.384" y="-414.22" font-family="Times,serif" font-size="14.00">_one_time_conditions_valid_80?</text>
<text text-anchor="start" x="187.384" y="-397.42" font-family="Times,serif" font-size="14.00">_one_time_conditions_valid_82?</text>
<text text-anchor="start" x="187.384" y="-380.62" font-family="Times,serif" font-size="14.00">_one_time_conditions_valid_84?</text>
<text text-anchor="start" x="187.384" y="-363.82" font-family="Times,serif" font-size="14.00">find_priority</text>
<text text-anchor="start" x="187.384" y="-347.02" font-family="Times,serif" font-size="14.00">render_404</text>
<polyline fill="none" stroke="black" points="179.384,-340.22 382.019,-340.22 "/>
<polyline fill="none" stroke="black" points="179.384,-316.22 382.019,-316.22 "/>
<text text-anchor="start" x="187.384" y="-298.22" font-family="Times,serif" font-size="14.00">_layout</text>
<text text-anchor="start" x="187.384" y="-281.42" font-family="Times,serif" font-size="14.00">after_sign_in_path_for</text>
<text text-anchor="start" x="187.384" y="-264.62" font-family="Times,serif" font-size="14.00">stored_location_for</text>
</g>
<!-- ApplicationController&#45;&gt;ActivitiesController -->
<g id="edge1" class="edge"><title>ApplicationController&#45;&gt;ActivitiesController</title>
<path fill="none" stroke="black" d="M179.325,-361.148C163.824,-361.718 148.131,-362.295 133.523,-362.833"/>
<polyline fill="none" stroke="black" points="128.193,-363.029 133.189,-362.845 "/>
</g>
<!-- DashboardController -->
<g id="node4" class="node"><title>DashboardController</title>
<path fill="none" stroke="black" d="M434.266,-13.1435C434.266,-13.1435 552.246,-13.1435 552.246,-13.1435 558.246,-13.1435 564.246,-19.1435 564.246,-25.1435 564.246,-25.1435 564.246,-200.343 564.246,-200.343 564.246,-206.343 558.246,-212.343 552.246,-212.343 552.246,-212.343 434.266,-212.343 434.266,-212.343 428.266,-212.343 422.266,-206.343 422.266,-200.343 422.266,-200.343 422.266,-25.1435 422.266,-25.1435 422.266,-19.1435 428.266,-13.1435 434.266,-13.1435"/>
<text text-anchor="middle" x="493.256" y="-194.343" font-family="Times,serif" font-size="14.00">DashboardController</text>
<polyline fill="none" stroke="black" points="422.266,-187.543 564.246,-187.543 "/>
<text text-anchor="start" x="430.266" y="-169.543" font-family="Times,serif" font-size="14.00">advisors_statistics</text>
<text text-anchor="start" x="430.266" y="-152.743" font-family="Times,serif" font-size="14.00">complaints_statistics</text>
<text text-anchor="start" x="430.266" y="-135.943" font-family="Times,serif" font-size="14.00">index</text>
<text text-anchor="start" x="430.266" y="-119.143" font-family="Times,serif" font-size="14.00">subjects_statistics</text>
<text text-anchor="start" x="430.266" y="-102.343" font-family="Times,serif" font-size="14.00">tickets_with_priorities</text>
<text text-anchor="start" x="430.266" y="-85.5435" font-family="Times,serif" font-size="14.00">tickets_with_statuses</text>
<text text-anchor="start" x="430.266" y="-68.7435" font-family="Times,serif" font-size="14.00">yearly_chart</text>
<polyline fill="none" stroke="black" points="422.266,-61.9435 564.246,-61.9435 "/>
<polyline fill="none" stroke="black" points="422.266,-37.9435 564.246,-37.9435 "/>
<text text-anchor="start" x="430.266" y="-19.9435" font-family="Times,serif" font-size="14.00">_layout</text>
</g>
<!-- ApplicationController&#45;&gt;DashboardController -->
<g id="edge2" class="edge"><title>ApplicationController&#45;&gt;DashboardController</title>
<path fill="none" stroke="black" d="M357.496,-257.668C367.57,-245.304 377.904,-232.961 388.003,-221.416 397.636,-210.404 408.06,-199.039 418.475,-187.996"/>
<polyline fill="none" stroke="black" points="422.005,-184.265 418.569,-187.897 "/>
</g>
<!-- EmployeesController -->
<g id="node5" class="node"><title>EmployeesController</title>
<path fill="none" stroke="black" d="M224.622,-488.85C224.622,-488.85 336.374,-488.85 336.374,-488.85 342.374,-488.85 348.374,-494.85 348.374,-500.85 348.374,-500.85 348.374,-709.65 348.374,-709.65 348.374,-715.65 342.374,-721.65 336.374,-721.65 336.374,-721.65 224.622,-721.65 224.622,-721.65 218.622,-721.65 212.622,-715.65 212.622,-709.65 212.622,-709.65 212.622,-500.85 212.622,-500.85 212.622,-494.85 218.622,-488.85 224.622,-488.85"/>
<text text-anchor="middle" x="280.498" y="-703.65" font-family="Times,serif" font-size="14.00">EmployeesController</text>
<polyline fill="none" stroke="black" points="212.622,-696.85 348.374,-696.85 "/>
<text text-anchor="start" x="220.622" y="-678.85" font-family="Times,serif" font-size="14.00">create</text>
<text text-anchor="start" x="220.622" y="-662.05" font-family="Times,serif" font-size="14.00">create_multiple</text>
<text text-anchor="start" x="220.622" y="-645.25" font-family="Times,serif" font-size="14.00">destroy</text>
<text text-anchor="start" x="220.622" y="-628.45" font-family="Times,serif" font-size="14.00">edit</text>
<text text-anchor="start" x="220.622" y="-611.65" font-family="Times,serif" font-size="14.00">index</text>
<text text-anchor="start" x="220.622" y="-594.85" font-family="Times,serif" font-size="14.00">new</text>
<text text-anchor="start" x="220.622" y="-578.05" font-family="Times,serif" font-size="14.00">new_multiple</text>
<text text-anchor="start" x="220.622" y="-561.25" font-family="Times,serif" font-size="14.00">show</text>
<text text-anchor="start" x="220.622" y="-544.45" font-family="Times,serif" font-size="14.00">update</text>
<polyline fill="none" stroke="black" points="212.622,-537.65 348.374,-537.65 "/>
<polyline fill="none" stroke="black" points="212.622,-513.65 348.374,-513.65 "/>
<text text-anchor="start" x="220.622" y="-495.65" font-family="Times,serif" font-size="14.00">_layout</text>
</g>
<!-- ApplicationController&#45;&gt;EmployeesController -->
<g id="edge3" class="edge"><title>ApplicationController&#45;&gt;EmployeesController</title>
<path fill="none" stroke="black" d="M280.62,-457.15C280.613,-465.727 280.605,-474.465 280.598,-483.19"/>
<polyline fill="none" stroke="black" points="280.594,-488.619 280.598,-483.619 "/>
</g>
<!-- FollowUpsController -->
<g id="node6" class="node"><title>FollowUpsController</title>
<path fill="none" stroke="black" d="M402.869,-539.546C402.869,-539.546 588.504,-539.546 588.504,-539.546 594.504,-539.546 600.504,-545.546 600.504,-551.546 600.504,-551.546 600.504,-659.546 600.504,-659.546 600.504,-665.546 594.504,-671.546 588.504,-671.546 588.504,-671.546 402.869,-671.546 402.869,-671.546 396.869,-671.546 390.869,-665.546 390.869,-659.546 390.869,-659.546 390.869,-551.546 390.869,-551.546 390.869,-545.546 396.869,-539.546 402.869,-539.546"/>
<text text-anchor="middle" x="495.687" y="-653.546" font-family="Times,serif" font-size="14.00">FollowUpsController</text>
<polyline fill="none" stroke="black" points="390.869,-646.746 600.504,-646.746 "/>
<text text-anchor="start" x="398.869" y="-628.746" font-family="Times,serif" font-size="14.00">_one_time_conditions_valid_124?</text>
<text text-anchor="start" x="398.869" y="-611.946" font-family="Times,serif" font-size="14.00">create</text>
<polyline fill="none" stroke="black" points="390.869,-605.146 600.504,-605.146 "/>
<polyline fill="none" stroke="black" points="390.869,-581.146 600.504,-581.146 "/>
<text text-anchor="start" x="398.869" y="-563.146" font-family="Times,serif" font-size="14.00">_layout</text>
<text text-anchor="start" x="398.869" y="-546.346" font-family="Times,serif" font-size="14.00">load_ticket</text>
</g>
<!-- ApplicationController&#45;&gt;FollowUpsController -->
<g id="edge4" class="edge"><title>ApplicationController&#45;&gt;FollowUpsController</title>
<path fill="none" stroke="black" d="M356.873,-457.037C367.139,-469.716 377.69,-482.385 388.003,-494.216 399.955,-507.927 413.108,-522.165 425.994,-535.694"/>
<polyline fill="none" stroke="black" points="429.62,-539.49 426.167,-535.874 "/>
</g>
<!-- StudentsController -->
<g id="node7" class="node"><title>StudentsController</title>
<path fill="none" stroke="black" d="M14.9703,-492.925C14.9703,-492.925 112.743,-492.925 112.743,-492.925 118.743,-492.925 124.743,-498.925 124.743,-504.925 124.743,-504.925 124.743,-713.725 124.743,-713.725 124.743,-719.725 118.743,-725.725 112.743,-725.725 112.743,-725.725 14.9703,-725.725 14.9703,-725.725 8.97027,-725.725 2.97027,-719.725 2.97027,-713.725 2.97027,-713.725 2.97027,-504.925 2.97027,-504.925 2.97027,-498.925 8.97027,-492.925 14.9703,-492.925"/>
<text text-anchor="middle" x="63.8565" y="-707.725" font-family="Times,serif" font-size="14.00">StudentsController</text>
<polyline fill="none" stroke="black" points="2.97027,-700.925 124.743,-700.925 "/>
<text text-anchor="start" x="10.9703" y="-682.925" font-family="Times,serif" font-size="14.00">create</text>
<text text-anchor="start" x="10.9703" y="-666.125" font-family="Times,serif" font-size="14.00">create_multiple</text>
<text text-anchor="start" x="10.9703" y="-649.325" font-family="Times,serif" font-size="14.00">destroy</text>
<text text-anchor="start" x="10.9703" y="-632.525" font-family="Times,serif" font-size="14.00">edit</text>
<text text-anchor="start" x="10.9703" y="-615.725" font-family="Times,serif" font-size="14.00">index</text>
<text text-anchor="start" x="10.9703" y="-598.925" font-family="Times,serif" font-size="14.00">new</text>
<text text-anchor="start" x="10.9703" y="-582.125" font-family="Times,serif" font-size="14.00">new_multiple</text>
<text text-anchor="start" x="10.9703" y="-565.325" font-family="Times,serif" font-size="14.00">show</text>
<text text-anchor="start" x="10.9703" y="-548.525" font-family="Times,serif" font-size="14.00">update</text>
<polyline fill="none" stroke="black" points="2.97027,-541.725 124.743,-541.725 "/>
<polyline fill="none" stroke="black" points="2.97027,-517.725 124.743,-517.725 "/>
<text text-anchor="start" x="10.9703" y="-499.725" font-family="Times,serif" font-size="14.00">_layout</text>
</g>
<!-- ApplicationController&#45;&gt;StudentsController -->
<g id="edge5" class="edge"><title>ApplicationController&#45;&gt;StudentsController</title>
<path fill="none" stroke="black" d="M194.687,-457.341C172.576,-483.028 149.164,-510.225 128.351,-534.403"/>
<polyline fill="none" stroke="black" points="125.034,-538.256 128.296,-534.467 "/>
</g>
<!-- SubjectsController -->
<g id="node8" class="node"><title>SubjectsController</title>
<path fill="none" stroke="black" d="M12.4992,-0.5C12.4992,-0.5 109.486,-0.5 109.486,-0.5 115.486,-0.5 121.486,-6.5 121.486,-12.5 121.486,-12.5 121.486,-221.3 121.486,-221.3 121.486,-227.3 115.486,-233.3 109.486,-233.3 109.486,-233.3 12.4992,-233.3 12.4992,-233.3 6.49918,-233.3 0.499176,-227.3 0.499176,-221.3 0.499176,-221.3 0.499176,-12.5 0.499176,-12.5 0.499176,-6.5 6.49918,-0.5 12.4992,-0.5"/>
<text text-anchor="middle" x="60.9923" y="-215.3" font-family="Times,serif" font-size="14.00">SubjectsController</text>
<polyline fill="none" stroke="black" points="0.499176,-208.5 121.486,-208.5 "/>
<text text-anchor="start" x="8.49918" y="-190.5" font-family="Times,serif" font-size="14.00">create</text>
<text text-anchor="start" x="8.49918" y="-173.7" font-family="Times,serif" font-size="14.00">destroy</text>
<text text-anchor="start" x="8.49918" y="-156.9" font-family="Times,serif" font-size="14.00">edit</text>
<text text-anchor="start" x="8.49918" y="-140.1" font-family="Times,serif" font-size="14.00">edit_multiple</text>
<text text-anchor="start" x="8.49918" y="-123.3" font-family="Times,serif" font-size="14.00">index</text>
<text text-anchor="start" x="8.49918" y="-106.5" font-family="Times,serif" font-size="14.00">new</text>
<text text-anchor="start" x="8.49918" y="-89.7" font-family="Times,serif" font-size="14.00">show</text>
<text text-anchor="start" x="8.49918" y="-72.9" font-family="Times,serif" font-size="14.00">update</text>
<text text-anchor="start" x="8.49918" y="-56.1" font-family="Times,serif" font-size="14.00">update_multiple</text>
<polyline fill="none" stroke="black" points="0.499176,-49.3 121.486,-49.3 "/>
<polyline fill="none" stroke="black" points="0.499176,-25.3 121.486,-25.3 "/>
<text text-anchor="start" x="8.49918" y="-7.3" font-family="Times,serif" font-size="14.00">_layout</text>
</g>
<!-- ApplicationController&#45;&gt;SubjectsController -->
<g id="edge6" class="edge"><title>ApplicationController&#45;&gt;SubjectsController</title>
<path fill="none" stroke="black" d="M189.434,-257.507C167.812,-233.838 145.201,-209.085 125.083,-187.061"/>
<polyline fill="none" stroke="black" points="121.617,-183.267 124.99,-186.959 "/>
</g>
<!-- TicketsController -->
<g id="node9" class="node"><title>TicketsController</title>
<path fill="none" stroke="black" d="M403.203,-224.616C403.203,-224.616 588.838,-224.616 588.838,-224.616 594.838,-224.616 600.838,-230.616 600.838,-236.616 600.838,-236.616 600.838,-479.016 600.838,-479.016 600.838,-485.016 594.838,-491.016 588.838,-491.016 588.838,-491.016 403.203,-491.016 403.203,-491.016 397.203,-491.016 391.203,-485.016 391.203,-479.016 391.203,-479.016 391.203,-236.616 391.203,-236.616 391.203,-230.616 397.203,-224.616 403.203,-224.616"/>
<text text-anchor="middle" x="496.02" y="-473.016" font-family="Times,serif" font-size="14.00">TicketsController</text>
<polyline fill="none" stroke="black" points="391.203,-466.216 600.838,-466.216 "/>
<text text-anchor="start" x="399.203" y="-448.216" font-family="Times,serif" font-size="14.00">_one_time_conditions_valid_240?</text>
<text text-anchor="start" x="399.203" y="-431.416" font-family="Times,serif" font-size="14.00">_one_time_conditions_valid_244?</text>
<text text-anchor="start" x="399.203" y="-414.616" font-family="Times,serif" font-size="14.00">create</text>
<text text-anchor="start" x="399.203" y="-397.816" font-family="Times,serif" font-size="14.00">destroy</text>
<text text-anchor="start" x="399.203" y="-381.016" font-family="Times,serif" font-size="14.00">edit</text>
<text text-anchor="start" x="399.203" y="-364.216" font-family="Times,serif" font-size="14.00">index</text>
<text text-anchor="start" x="399.203" y="-347.416" font-family="Times,serif" font-size="14.00">new</text>
<text text-anchor="start" x="399.203" y="-330.616" font-family="Times,serif" font-size="14.00">show</text>
<text text-anchor="start" x="399.203" y="-313.816" font-family="Times,serif" font-size="14.00">update</text>
<polyline fill="none" stroke="black" points="391.203,-307.016 600.838,-307.016 "/>
<polyline fill="none" stroke="black" points="391.203,-283.016 600.838,-283.016 "/>
<text text-anchor="start" x="399.203" y="-265.016" font-family="Times,serif" font-size="14.00">_layout</text>
<text text-anchor="start" x="399.203" y="-248.216" font-family="Times,serif" font-size="14.00">set_subject</text>
<text text-anchor="start" x="399.203" y="-231.416" font-family="Times,serif" font-size="14.00">set_user</text>
</g>
<!-- ApplicationController&#45;&gt;TicketsController -->
<g id="edge7" class="edge"><title>ApplicationController&#45;&gt;TicketsController</title>
<path fill="none" stroke="black" d="M382.056,-357.606C383.253,-357.609 384.45,-357.611 385.648,-357.613"/>
<polyline fill="none" stroke="black" points="390.901,-357.623 385.901,-357.613 "/>
</g>
<!-- UsersController -->
<g id="node10" class="node"><title>UsersController</title>
<path fill="none" stroke="black" d="M234.555,-12.7334C234.555,-12.7334 315.983,-12.7334 315.983,-12.7334 321.983,-12.7334 327.983,-18.7334 327.983,-24.7334 327.983,-24.7334 327.983,-199.933 327.983,-199.933 327.983,-205.933 321.983,-211.933 315.983,-211.933 315.983,-211.933 234.555,-211.933 234.555,-211.933 228.555,-211.933 222.555,-205.933 222.555,-199.933 222.555,-199.933 222.555,-24.7334 222.555,-24.7334 222.555,-18.7334 228.555,-12.7334 234.555,-12.7334"/>
<text text-anchor="middle" x="275.269" y="-193.933" font-family="Times,serif" font-size="14.00">UsersController</text>
<polyline fill="none" stroke="black" points="222.555,-187.133 327.983,-187.133 "/>
<text text-anchor="start" x="230.555" y="-169.133" font-family="Times,serif" font-size="14.00">create</text>
<text text-anchor="start" x="230.555" y="-152.333" font-family="Times,serif" font-size="14.00">destroy</text>
<text text-anchor="start" x="230.555" y="-135.533" font-family="Times,serif" font-size="14.00">edit</text>
<text text-anchor="start" x="230.555" y="-118.733" font-family="Times,serif" font-size="14.00">index</text>
<text text-anchor="start" x="230.555" y="-101.933" font-family="Times,serif" font-size="14.00">new</text>
<text text-anchor="start" x="230.555" y="-85.1334" font-family="Times,serif" font-size="14.00">show</text>
<text text-anchor="start" x="230.555" y="-68.3334" font-family="Times,serif" font-size="14.00">update</text>
<polyline fill="none" stroke="black" points="222.555,-61.5334 327.983,-61.5334 "/>
<polyline fill="none" stroke="black" points="222.555,-37.5334 327.983,-37.5334 "/>
<text text-anchor="start" x="230.555" y="-19.5334" font-family="Times,serif" font-size="14.00">_layout</text>
</g>
<!-- ApplicationController&#45;&gt;UsersController -->
<g id="edge8" class="edge"><title>ApplicationController&#45;&gt;UsersController</title>
<path fill="none" stroke="black" d="M278.492,-257.734C278.199,-244.513 277.898,-230.925 277.603,-217.614"/>
<polyline fill="none" stroke="black" points="277.486,-212.329 277.597,-217.328 "/>
</g>
</g>
</svg>
