<?xml version="1.0" encoding="UTF-8" standalone="no"?>
<!DOCTYPE svg PUBLIC "-//W3C//DTD SVG 1.1//EN"
 "http://www.w3.org/Graphics/SVG/1.1/DTD/svg11.dtd">
<!-- Generated by graphviz version 2.34.0 (20140102.1042)
 -->
<!-- Title: models_diagram Pages: 1 -->
<svg width="1298pt" height="1378pt"
 viewBox="0.00 0.00 1298.00 1378.00" xmlns="http://www.w3.org/2000/svg" xmlns:xlink="http://www.w3.org/1999/xlink">
<g id="graph0" class="graph" transform="scale(1 1) rotate(0) translate(4 1374)">
<title>models_diagram</title>
<polygon fill="white" stroke="white" points="-4,4 -4,-1374 1294,-1374 1294,4 -4,4"/>
<!-- _diagram_info -->
<g id="node1" class="node"><title>_diagram_info</title>
<text text-anchor="start" x="7.31226" y="-1353" font-family="Times,serif" font-size="13.00">Models diagram</text>
<text text-anchor="start" x="7.31226" y="-1337.4" font-family="Times,serif" font-size="13.00">Date: Jan 28 2014 &#45; 15:59</text>
<text text-anchor="start" x="7.31226" y="-1321.8" font-family="Times,serif" font-size="13.00">Migration version: 20140128094845</text>
<text text-anchor="start" x="7.31226" y="-1306.2" font-family="Times,serif" font-size="13.00">Generated by RailRoady 1.1.1</text>
<text text-anchor="start" x="7.31226" y="-1290.6" font-family="Times,serif" font-size="13.00">http://railroady.prestonlee.com</text>
</g>
<!-- Ability -->
<g id="node2" class="node"><title>Ability</title>
<polygon fill="none" stroke="black" points="233.166,-1078.2 233.166,-1127.8 288.834,-1127.8 288.834,-1078.2 233.166,-1078.2"/>
<text text-anchor="middle" x="261" y="-1109.8" font-family="Times,serif" font-size="14.00">Ability</text>
<polyline fill="none" stroke="black" points="233.166,-1103 288.834,-1103 "/>
<text text-anchor="middle" x="261" y="-1085" font-family="Times,serif" font-size="14.00"> </text>
</g>
<!-- Advisor -->
<g id="node3" class="node"><title>Advisor</title>
<path fill="none" stroke="black" d="M639.729,-379C639.729,-379 820.271,-379 820.271,-379 826.271,-379 832.271,-385 832.271,-391 832.271,-391 832.271,-551 832.271,-551 832.271,-557 826.271,-563 820.271,-563 820.271,-563 639.729,-563 639.729,-563 633.729,-563 627.729,-557 627.729,-551 627.729,-551 627.729,-391 627.729,-391 627.729,-385 633.729,-379 639.729,-379"/>
<text text-anchor="middle" x="730" y="-545" font-family="Times,serif" font-size="14.00">Advisor</text>
<polyline fill="none" stroke="black" points="627.729,-538.2 832.271,-538.2 "/>
<text text-anchor="start" x="635.729" y="-520.2" font-family="Times,serif" font-size="14.00">id :integer</text>
<text text-anchor="start" x="635.729" y="-503.4" font-family="Times,serif" font-size="14.00">full_name :string</text>
<text text-anchor="start" x="635.729" y="-486.6" font-family="Times,serif" font-size="14.00">gender :string</text>
<text text-anchor="start" x="635.729" y="-469.8" font-family="Times,serif" font-size="14.00">type :string</text>
<text text-anchor="start" x="635.729" y="-453" font-family="Times,serif" font-size="14.00">user_id :integer</text>
<text text-anchor="start" x="635.729" y="-436.2" font-family="Times,serif" font-size="14.00">employee_department_id :integer</text>
<text text-anchor="start" x="635.729" y="-419.4" font-family="Times,serif" font-size="14.00">employee_position_id :integer</text>
<text text-anchor="start" x="635.729" y="-402.6" font-family="Times,serif" font-size="14.00">created_at :datetime</text>
<text text-anchor="start" x="635.729" y="-385.8" font-family="Times,serif" font-size="14.00">updated_at :datetime</text>
</g>
<!-- Subject -->
<g id="node13" class="node"><title>Subject</title>
<path fill="none" stroke="black" d="M805.495,-189.2C805.495,-189.2 914.505,-189.2 914.505,-189.2 920.505,-189.2 926.505,-195.2 926.505,-201.2 926.505,-201.2 926.505,-310.8 926.505,-310.8 926.505,-316.8 920.505,-322.8 914.505,-322.8 914.505,-322.8 805.495,-322.8 805.495,-322.8 799.495,-322.8 793.495,-316.8 793.495,-310.8 793.495,-310.8 793.495,-201.2 793.495,-201.2 793.495,-195.2 799.495,-189.2 805.495,-189.2"/>
<text text-anchor="middle" x="860" y="-304.8" font-family="Times,serif" font-size="14.00">Subject</text>
<polyline fill="none" stroke="black" points="793.495,-298 926.505,-298 "/>
<text text-anchor="start" x="801.495" y="-280" font-family="Times,serif" font-size="14.00">id :integer</text>
<text text-anchor="start" x="801.495" y="-263.2" font-family="Times,serif" font-size="14.00">subject_title :string</text>
<text text-anchor="start" x="801.495" y="-246.4" font-family="Times,serif" font-size="14.00">subjectCode :string</text>
<text text-anchor="start" x="801.495" y="-229.6" font-family="Times,serif" font-size="14.00">advisor_id :integer</text>
<text text-anchor="start" x="801.495" y="-212.8" font-family="Times,serif" font-size="14.00">created_at :datetime</text>
<text text-anchor="start" x="801.495" y="-196" font-family="Times,serif" font-size="14.00">updated_at :datetime</text>
</g>
<!-- Advisor&#45;&gt;Subject -->
<g id="edge2" class="edge"><title>Advisor&#45;&gt;Subject</title>
<path fill="none" stroke="#512f73" d="M790.003,-371.688C798.189,-358.274 806.482,-344.687 814.358,-331.783"/>
<ellipse fill="none" stroke="#512f73" cx="787.781" cy="-375.328" rx="4.00002" ry="4.00002"/>
<polygon fill="#512f73" stroke="#512f73" points="814.528,-331.505 823.578,-325.313 817.133,-327.237 819.737,-322.969 819.737,-322.969 819.737,-322.969 817.133,-327.237 815.896,-320.624 814.528,-331.505 814.528,-331.505"/>
</g>
<!-- TicketStatus -->
<g id="node15" class="node"><title>TicketStatus</title>
<path fill="none" stroke="black" d="M439.004,-172.4C439.004,-172.4 574.996,-172.4 574.996,-172.4 580.996,-172.4 586.996,-178.4 586.996,-184.4 586.996,-184.4 586.996,-327.6 586.996,-327.6 586.996,-333.6 580.996,-339.6 574.996,-339.6 574.996,-339.6 439.004,-339.6 439.004,-339.6 433.004,-339.6 427.004,-333.6 427.004,-327.6 427.004,-327.6 427.004,-184.4 427.004,-184.4 427.004,-178.4 433.004,-172.4 439.004,-172.4"/>
<text text-anchor="middle" x="507" y="-321.6" font-family="Times,serif" font-size="14.00">TicketStatus</text>
<polyline fill="none" stroke="black" points="427.004,-314.8 586.996,-314.8 "/>
<text text-anchor="start" x="435.004" y="-296.8" font-family="Times,serif" font-size="14.00">id :integer</text>
<text text-anchor="start" x="435.004" y="-280" font-family="Times,serif" font-size="14.00">status_id :integer</text>
<text text-anchor="start" x="435.004" y="-263.2" font-family="Times,serif" font-size="14.00">ticket_id :integer</text>
<text text-anchor="start" x="435.004" y="-246.4" font-family="Times,serif" font-size="14.00">staff_id :integer</text>
<text text-anchor="start" x="435.004" y="-229.6" font-family="Times,serif" font-size="14.00">advisor_id :integer</text>
<text text-anchor="start" x="435.004" y="-212.8" font-family="Times,serif" font-size="14.00">previous_staff_id :integer</text>
<text text-anchor="start" x="435.004" y="-196" font-family="Times,serif" font-size="14.00">created_at :datetime</text>
<text text-anchor="start" x="435.004" y="-179.2" font-family="Times,serif" font-size="14.00">updated_at :datetime</text>
</g>
<!-- Advisor&#45;&gt;TicketStatus -->
<g id="edge3" class="edge"><title>Advisor&#45;&gt;TicketStatus</title>
<path fill="none" stroke="#6aed90" d="M628.544,-373.093C617.195,-362.254 605.707,-351.281 594.554,-340.628"/>
<ellipse fill="none" stroke="#6aed90" cx="631.565" cy="-375.979" rx="4.00002" ry="4.00002"/>
<polygon fill="#6aed90" stroke="#6aed90" points="594.51,-340.586 590.387,-330.425 590.894,-337.132 587.279,-333.679 587.279,-333.679 587.279,-333.679 590.894,-337.132 584.17,-336.933 594.51,-340.586 594.51,-340.586"/>
</g>
<!-- Attend -->
<g id="node4" class="node"><title>Attend</title>
<path fill="none" stroke="black" d="M900.495,-0.6C900.495,-0.6 1009.51,-0.6 1009.51,-0.6 1015.51,-0.6 1021.51,-6.6 1021.51,-12.6 1021.51,-12.6 1021.51,-105.4 1021.51,-105.4 1021.51,-111.4 1015.51,-117.4 1009.51,-117.4 1009.51,-117.4 900.495,-117.4 900.495,-117.4 894.495,-117.4 888.495,-111.4 888.495,-105.4 888.495,-105.4 888.495,-12.6 888.495,-12.6 888.495,-6.6 894.495,-0.6 900.495,-0.6"/>
<text text-anchor="middle" x="955" y="-99.4" font-family="Times,serif" font-size="14.00">Attend</text>
<polyline fill="none" stroke="black" points="888.495,-92.6 1021.51,-92.6 "/>
<text text-anchor="start" x="896.495" y="-74.6" font-family="Times,serif" font-size="14.00">id :integer</text>
<text text-anchor="start" x="896.495" y="-57.8" font-family="Times,serif" font-size="14.00">student_id :integer</text>
<text text-anchor="start" x="896.495" y="-41" font-family="Times,serif" font-size="14.00">subject_id :integer</text>
<text text-anchor="start" x="896.495" y="-24.2" font-family="Times,serif" font-size="14.00">created_at :datetime</text>
<text text-anchor="start" x="896.495" y="-7.4" font-family="Times,serif" font-size="14.00">updated_at :datetime</text>
</g>
<!-- Employee -->
<g id="node5" class="node"><title>Employee</title>
<path fill="none" stroke="black" d="M559.729,-603C559.729,-603 740.271,-603 740.271,-603 746.271,-603 752.271,-609 752.271,-615 752.271,-615 752.271,-775 752.271,-775 752.271,-781 746.271,-787 740.271,-787 740.271,-787 559.729,-787 559.729,-787 553.729,-787 547.729,-781 547.729,-775 547.729,-775 547.729,-615 547.729,-615 547.729,-609 553.729,-603 559.729,-603"/>
<text text-anchor="middle" x="650" y="-769" font-family="Times,serif" font-size="14.00">Employee</text>
<polyline fill="none" stroke="black" points="547.729,-762.2 752.271,-762.2 "/>
<text text-anchor="start" x="555.729" y="-744.2" font-family="Times,serif" font-size="14.00">id :integer</text>
<text text-anchor="start" x="555.729" y="-727.4" font-family="Times,serif" font-size="14.00">full_name :string</text>
<text text-anchor="start" x="555.729" y="-710.6" font-family="Times,serif" font-size="14.00">gender :string</text>
<text text-anchor="start" x="555.729" y="-693.8" font-family="Times,serif" font-size="14.00">type :string</text>
<text text-anchor="start" x="555.729" y="-677" font-family="Times,serif" font-size="14.00">user_id :integer</text>
<text text-anchor="start" x="555.729" y="-660.2" font-family="Times,serif" font-size="14.00">employee_department_id :integer</text>
<text text-anchor="start" x="555.729" y="-643.4" font-family="Times,serif" font-size="14.00">employee_position_id :integer</text>
<text text-anchor="start" x="555.729" y="-626.6" font-family="Times,serif" font-size="14.00">created_at :datetime</text>
<text text-anchor="start" x="555.729" y="-609.8" font-family="Times,serif" font-size="14.00">updated_at :datetime</text>
</g>
<!-- Employee&#45;&gt;Advisor -->
<g id="edge4" class="edge"><title>Employee&#45;&gt;Advisor</title>
<path fill="none" stroke="black" d="M682.885,-602.743C686.996,-591.337 691.209,-579.644 695.346,-568.166"/>
<polyline fill="none" stroke="black" points="697.113,-563.261 695.418,-567.965 "/>
</g>
<!-- Staff -->
<g id="node10" class="node"><title>Staff</title>
<path fill="none" stroke="black" d="M416.729,-379C416.729,-379 597.271,-379 597.271,-379 603.271,-379 609.271,-385 609.271,-391 609.271,-391 609.271,-551 609.271,-551 609.271,-557 603.271,-563 597.271,-563 597.271,-563 416.729,-563 416.729,-563 410.729,-563 404.729,-557 404.729,-551 404.729,-551 404.729,-391 404.729,-391 404.729,-385 410.729,-379 416.729,-379"/>
<text text-anchor="middle" x="507" y="-545" font-family="Times,serif" font-size="14.00">Staff</text>
<polyline fill="none" stroke="black" points="404.729,-538.2 609.271,-538.2 "/>
<text text-anchor="start" x="412.729" y="-520.2" font-family="Times,serif" font-size="14.00">id :integer</text>
<text text-anchor="start" x="412.729" y="-503.4" font-family="Times,serif" font-size="14.00">full_name :string</text>
<text text-anchor="start" x="412.729" y="-486.6" font-family="Times,serif" font-size="14.00">gender :string</text>
<text text-anchor="start" x="412.729" y="-469.8" font-family="Times,serif" font-size="14.00">type :string</text>
<text text-anchor="start" x="412.729" y="-453" font-family="Times,serif" font-size="14.00">user_id :integer</text>
<text text-anchor="start" x="412.729" y="-436.2" font-family="Times,serif" font-size="14.00">employee_department_id :integer</text>
<text text-anchor="start" x="412.729" y="-419.4" font-family="Times,serif" font-size="14.00">employee_position_id :integer</text>
<text text-anchor="start" x="412.729" y="-402.6" font-family="Times,serif" font-size="14.00">created_at :datetime</text>
<text text-anchor="start" x="412.729" y="-385.8" font-family="Times,serif" font-size="14.00">updated_at :datetime</text>
</g>
<!-- Employee&#45;&gt;Staff -->
<g id="edge16" class="edge"><title>Employee&#45;&gt;Staff</title>
<path fill="none" stroke="black" d="M591.217,-602.743C583.739,-591.133 576.069,-579.226 568.549,-567.551"/>
<polyline fill="none" stroke="black" points="565.785,-563.261 568.493,-567.465 "/>
</g>
<!-- EmployeeDepartment -->
<g id="node6" class="node"><title>EmployeeDepartment</title>
<path fill="none" stroke="black" d="M630.215,-1053C630.215,-1053 761.785,-1053 761.785,-1053 767.785,-1053 773.785,-1059 773.785,-1065 773.785,-1065 773.785,-1141 773.785,-1141 773.785,-1147 767.785,-1153 761.785,-1153 761.785,-1153 630.215,-1153 630.215,-1153 624.215,-1153 618.215,-1147 618.215,-1141 618.215,-1141 618.215,-1065 618.215,-1065 618.215,-1059 624.215,-1053 630.215,-1053"/>
<text text-anchor="middle" x="696" y="-1135" font-family="Times,serif" font-size="14.00">EmployeeDepartment</text>
<polyline fill="none" stroke="black" points="618.215,-1128.2 773.785,-1128.2 "/>
<text text-anchor="start" x="626.215" y="-1110.2" font-family="Times,serif" font-size="14.00">id :integer</text>
<text text-anchor="start" x="626.215" y="-1093.4" font-family="Times,serif" font-size="14.00">department_name :string</text>
<text text-anchor="start" x="626.215" y="-1076.6" font-family="Times,serif" font-size="14.00">created_at :datetime</text>
<text text-anchor="start" x="626.215" y="-1059.8" font-family="Times,serif" font-size="14.00">updated_at :datetime</text>
</g>
<!-- EmployeeDepartment&#45;&gt;Employee -->
<g id="edge7" class="edge"><title>EmployeeDepartment&#45;&gt;Employee</title>
<path fill="none" stroke="#b48127" d="M689.46,-1044.28C682.2,-980.201 670.343,-875.551 661.519,-797.667"/>
<ellipse fill="none" stroke="#b48127" cx="689.955" cy="-1048.65" rx="4.00001" ry="4.00001"/>
<polygon fill="#b48127" stroke="#b48127" points="661.475,-797.281 664.821,-786.838 660.912,-792.313 660.349,-787.345 660.349,-787.345 660.349,-787.345 660.912,-792.313 655.878,-787.851 661.475,-797.281 661.475,-797.281"/>
</g>
<!-- EmployeePosition -->
<g id="node7" class="node"><title>EmployeePosition</title>
<path fill="none" stroke="black" d="M440.495,-1053C440.495,-1053 549.505,-1053 549.505,-1053 555.505,-1053 561.505,-1059 561.505,-1065 561.505,-1065 561.505,-1141 561.505,-1141 561.505,-1147 555.505,-1153 549.505,-1153 549.505,-1153 440.495,-1153 440.495,-1153 434.495,-1153 428.495,-1147 428.495,-1141 428.495,-1141 428.495,-1065 428.495,-1065 428.495,-1059 434.495,-1053 440.495,-1053"/>
<text text-anchor="middle" x="495" y="-1135" font-family="Times,serif" font-size="14.00">EmployeePosition</text>
<polyline fill="none" stroke="black" points="428.495,-1128.2 561.505,-1128.2 "/>
<text text-anchor="start" x="436.495" y="-1110.2" font-family="Times,serif" font-size="14.00">id :integer</text>
<text text-anchor="start" x="436.495" y="-1093.4" font-family="Times,serif" font-size="14.00">position_title :string</text>
<text text-anchor="start" x="436.495" y="-1076.6" font-family="Times,serif" font-size="14.00">created_at :datetime</text>
<text text-anchor="start" x="436.495" y="-1059.8" font-family="Times,serif" font-size="14.00">updated_at :datetime</text>
</g>
<!-- EmployeePosition&#45;&gt;Employee -->
<g id="edge9" class="edge"><title>EmployeePosition&#45;&gt;Employee</title>
<path fill="none" stroke="#bae25d" d="M504.89,-1044.91C516.762,-983.863 539.734,-885.151 576,-806 577.483,-802.763 579.057,-799.516 580.706,-796.271"/>
<ellipse fill="none" stroke="#bae25d" cx="504.111" cy="-1048.97" rx="4.00001" ry="4.00001"/>
<polygon fill="#bae25d" stroke="#bae25d" points="580.858,-795.984 589.513,-789.25 583.197,-791.565 585.535,-787.145 585.535,-787.145 585.535,-787.145 583.197,-791.565 581.558,-785.04 580.858,-795.984 580.858,-795.984"/>
</g>
<!-- FollowUp -->
<g id="node8" class="node"><title>FollowUp</title>
<path fill="none" stroke="black" d="M1169.49,-180.8C1169.49,-180.8 1278.51,-180.8 1278.51,-180.8 1284.51,-180.8 1290.51,-186.8 1290.51,-192.8 1290.51,-192.8 1290.51,-319.2 1290.51,-319.2 1290.51,-325.2 1284.51,-331.2 1278.51,-331.2 1278.51,-331.2 1169.49,-331.2 1169.49,-331.2 1163.49,-331.2 1157.49,-325.2 1157.49,-319.2 1157.49,-319.2 1157.49,-192.8 1157.49,-192.8 1157.49,-186.8 1163.49,-180.8 1169.49,-180.8"/>
<text text-anchor="middle" x="1224" y="-313.2" font-family="Times,serif" font-size="14.00">FollowUp</text>
<polyline fill="none" stroke="black" points="1157.49,-306.4 1290.51,-306.4 "/>
<text text-anchor="start" x="1165.49" y="-288.4" font-family="Times,serif" font-size="14.00">id :integer</text>
<text text-anchor="start" x="1165.49" y="-271.6" font-family="Times,serif" font-size="14.00">text :string</text>
<text text-anchor="start" x="1165.49" y="-254.8" font-family="Times,serif" font-size="14.00">ticket_id :integer</text>
<text text-anchor="start" x="1165.49" y="-238" font-family="Times,serif" font-size="14.00">user_id :integer</text>
<text text-anchor="start" x="1165.49" y="-221.2" font-family="Times,serif" font-size="14.00">priority_id :integer</text>
<text text-anchor="start" x="1165.49" y="-204.4" font-family="Times,serif" font-size="14.00">created_at :datetime</text>
<text text-anchor="start" x="1165.49" y="-187.6" font-family="Times,serif" font-size="14.00">updated_at :datetime</text>
</g>
<!-- PublicActivity::Activity -->
<g id="node19" class="node"><title>PublicActivity::Activity</title>
<ellipse fill="none" stroke="black" cx="1164" cy="-59" rx="104.071" ry="18"/>
<text text-anchor="middle" x="1164" y="-53.4" font-family="Times,serif" font-size="14.00">PublicActivity::Activity</text>
</g>
<!-- FollowUp&#45;&gt;PublicActivity::Activity -->
<g id="edge11" class="edge"><title>FollowUp&#45;&gt;PublicActivity::Activity</title>
<path fill="none" stroke="#e2ca60" d="M1198.68,-172.712C1189.24,-142.02 1179.16,-109.267 1172.31,-87.0232"/>
<ellipse fill="none" stroke="#e2ca60" cx="1199.97" cy="-176.899" rx="4.00001" ry="4.00001"/>
<polygon fill="#e2ca60" stroke="#e2ca60" points="1172.26,-86.8534 1173.62,-75.9722 1170.79,-82.0745 1169.32,-77.2956 1169.32,-77.2956 1169.32,-77.2956 1170.79,-82.0745 1165.02,-78.619 1172.26,-86.8534 1172.26,-86.8534"/>
<text text-anchor="middle" x="1217.27" y="-139.4" font-family="Times,serif" font-size="14.00">activities</text>
</g>
<!-- Priority -->
<g id="node9" class="node"><title>Priority</title>
<path fill="none" stroke="black" d="M1067.71,-807.2C1067.71,-807.2 1178.29,-807.2 1178.29,-807.2 1184.29,-807.2 1190.29,-813.2 1190.29,-819.2 1190.29,-819.2 1190.29,-928.8 1190.29,-928.8 1190.29,-934.8 1184.29,-940.8 1178.29,-940.8 1178.29,-940.8 1067.71,-940.8 1067.71,-940.8 1061.71,-940.8 1055.71,-934.8 1055.71,-928.8 1055.71,-928.8 1055.71,-819.2 1055.71,-819.2 1055.71,-813.2 1061.71,-807.2 1067.71,-807.2"/>
<text text-anchor="middle" x="1123" y="-922.8" font-family="Times,serif" font-size="14.00">Priority</text>
<polyline fill="none" stroke="black" points="1055.71,-916 1190.29,-916 "/>
<text text-anchor="start" x="1063.71" y="-898" font-family="Times,serif" font-size="14.00">id :integer</text>
<text text-anchor="start" x="1063.71" y="-881.2" font-family="Times,serif" font-size="14.00">priority_name :string</text>
<text text-anchor="start" x="1063.71" y="-864.4" font-family="Times,serif" font-size="14.00">color :string</text>
<text text-anchor="start" x="1063.71" y="-847.6" font-family="Times,serif" font-size="14.00">background :string</text>
<text text-anchor="start" x="1063.71" y="-830.8" font-family="Times,serif" font-size="14.00">created_at :datetime</text>
<text text-anchor="start" x="1063.71" y="-814" font-family="Times,serif" font-size="14.00">updated_at :datetime</text>
</g>
<!-- Ticket -->
<g id="node14" class="node"><title>Ticket</title>
<path fill="none" stroke="black" d="M1054.49,-387.4C1054.49,-387.4 1163.51,-387.4 1163.51,-387.4 1169.51,-387.4 1175.51,-393.4 1175.51,-399.4 1175.51,-399.4 1175.51,-542.6 1175.51,-542.6 1175.51,-548.6 1169.51,-554.6 1163.51,-554.6 1163.51,-554.6 1054.49,-554.6 1054.49,-554.6 1048.49,-554.6 1042.49,-548.6 1042.49,-542.6 1042.49,-542.6 1042.49,-399.4 1042.49,-399.4 1042.49,-393.4 1048.49,-387.4 1054.49,-387.4"/>
<text text-anchor="middle" x="1109" y="-536.6" font-family="Times,serif" font-size="14.00">Ticket</text>
<polyline fill="none" stroke="black" points="1042.49,-529.8 1175.51,-529.8 "/>
<text text-anchor="start" x="1050.49" y="-511.8" font-family="Times,serif" font-size="14.00">id :integer</text>
<text text-anchor="start" x="1050.49" y="-495" font-family="Times,serif" font-size="14.00">title :string</text>
<text text-anchor="start" x="1050.49" y="-478.2" font-family="Times,serif" font-size="14.00">description :text</text>
<text text-anchor="start" x="1050.49" y="-461.4" font-family="Times,serif" font-size="14.00">student_id :integer</text>
<text text-anchor="start" x="1050.49" y="-444.6" font-family="Times,serif" font-size="14.00">subject_id :integer</text>
<text text-anchor="start" x="1050.49" y="-427.8" font-family="Times,serif" font-size="14.00">priority_id :integer</text>
<text text-anchor="start" x="1050.49" y="-411" font-family="Times,serif" font-size="14.00">created_at :datetime</text>
<text text-anchor="start" x="1050.49" y="-394.2" font-family="Times,serif" font-size="14.00">updated_at :datetime</text>
</g>
<!-- Priority&#45;&gt;Ticket -->
<g id="edge13" class="edge"><title>Priority&#45;&gt;Ticket</title>
<path fill="none" stroke="#b26362" d="M1120.4,-798.513C1118.1,-732.538 1114.72,-635.95 1112.24,-564.936"/>
<ellipse fill="none" stroke="#b26362" cx="1120.55" cy="-802.785" rx="4" ry="4"/>
<polygon fill="#b26362" stroke="#b26362" points="1112.23,-564.644 1116.38,-554.494 1112.06,-559.648 1111.89,-554.651 1111.89,-554.651 1111.89,-554.651 1112.06,-559.648 1107.39,-554.808 1112.23,-564.644 1112.23,-564.644"/>
</g>
<!-- Staff&#45;&gt;TicketStatus -->
<g id="edge15" class="edge"><title>Staff&#45;&gt;TicketStatus</title>
<path fill="none" stroke="#0eaa95" d="M507,-370.491C507,-363.557 507,-356.583 507,-349.687"/>
<ellipse fill="none" stroke="#0eaa95" cx="507" cy="-374.742" rx="4" ry="4"/>
<polygon fill="#0eaa95" stroke="#0eaa95" points="507,-349.654 511.5,-339.654 507,-344.654 507,-339.654 507,-339.654 507,-339.654 507,-344.654 502.5,-339.654 507,-349.654 507,-349.654"/>
</g>
<!-- Status -->
<g id="node11" class="node"><title>Status</title>
<path fill="none" stroke="black" d="M240.495,-824C240.495,-824 349.505,-824 349.505,-824 355.505,-824 361.505,-830 361.505,-836 361.505,-836 361.505,-912 361.505,-912 361.505,-918 355.505,-924 349.505,-924 349.505,-924 240.495,-924 240.495,-924 234.495,-924 228.495,-918 228.495,-912 228.495,-912 228.495,-836 228.495,-836 228.495,-830 234.495,-824 240.495,-824"/>
<text text-anchor="middle" x="295" y="-906" font-family="Times,serif" font-size="14.00">Status</text>
<polyline fill="none" stroke="black" points="228.495,-899.2 361.505,-899.2 "/>
<text text-anchor="start" x="236.495" y="-881.2" font-family="Times,serif" font-size="14.00">id :integer</text>
<text text-anchor="start" x="236.495" y="-864.4" font-family="Times,serif" font-size="14.00">ticket_status :string</text>
<text text-anchor="start" x="236.495" y="-847.6" font-family="Times,serif" font-size="14.00">created_at :datetime</text>
<text text-anchor="start" x="236.495" y="-830.8" font-family="Times,serif" font-size="14.00">updated_at :datetime</text>
</g>
<!-- Status&#45;&gt;TicketStatus -->
<g id="edge17" class="edge"><title>Status&#45;&gt;TicketStatus</title>
<path fill="none" stroke="#fc4f74" d="M288.362,-815.487C279.663,-714.853 274.633,-503.691 363,-358 376.491,-335.757 396.95,-317.133 418.245,-302.183"/>
<ellipse fill="none" stroke="#fc4f74" cx="288.744" cy="-819.724" rx="4" ry="4"/>
<polygon fill="#fc4f74" stroke="#fc4f74" points="418.473,-302.029 429.277,-300.151 422.614,-299.226 426.755,-296.424 426.755,-296.424 426.755,-296.424 422.614,-299.226 424.233,-292.697 418.473,-302.029 418.473,-302.029"/>
</g>
<!-- Student -->
<g id="node12" class="node"><title>Student</title>
<path fill="none" stroke="black" d="M866.495,-611.4C866.495,-611.4 975.505,-611.4 975.505,-611.4 981.505,-611.4 987.505,-617.4 987.505,-623.4 987.505,-623.4 987.505,-766.6 987.505,-766.6 987.505,-772.6 981.505,-778.6 975.505,-778.6 975.505,-778.6 866.495,-778.6 866.495,-778.6 860.495,-778.6 854.495,-772.6 854.495,-766.6 854.495,-766.6 854.495,-623.4 854.495,-623.4 854.495,-617.4 860.495,-611.4 866.495,-611.4"/>
<text text-anchor="middle" x="921" y="-760.6" font-family="Times,serif" font-size="14.00">Student</text>
<polyline fill="none" stroke="black" points="854.495,-753.8 987.505,-753.8 "/>
<text text-anchor="start" x="862.495" y="-735.8" font-family="Times,serif" font-size="14.00">id :integer</text>
<text text-anchor="start" x="862.495" y="-719" font-family="Times,serif" font-size="14.00">full_name :string</text>
<text text-anchor="start" x="862.495" y="-702.2" font-family="Times,serif" font-size="14.00">batch_name :string</text>
<text text-anchor="start" x="862.495" y="-685.4" font-family="Times,serif" font-size="14.00">section_name :string</text>
<text text-anchor="start" x="862.495" y="-668.6" font-family="Times,serif" font-size="14.00">gender :string</text>
<text text-anchor="start" x="862.495" y="-651.8" font-family="Times,serif" font-size="14.00">user_id :integer</text>
<text text-anchor="start" x="862.495" y="-635" font-family="Times,serif" font-size="14.00">created_at :datetime</text>
<text text-anchor="start" x="862.495" y="-618.2" font-family="Times,serif" font-size="14.00">updated_at :datetime</text>
</g>
<!-- Student&#45;&gt;Attend -->
<g id="edge19" class="edge"><title>Student&#45;&gt;Attend</title>
<path fill="none" stroke="#59daa9" d="M925.884,-602.934C932.786,-474.224 945.237,-242.051 951.376,-127.569"/>
<ellipse fill="none" stroke="#59daa9" cx="925.659" cy="-607.121" rx="4" ry="4"/>
<polygon fill="#59daa9" stroke="#59daa9" points="951.379,-127.516 956.408,-117.772 951.647,-122.523 951.915,-117.531 951.915,-117.531 951.915,-117.531 951.647,-122.523 947.421,-117.29 951.379,-127.516 951.379,-127.516"/>
</g>
<!-- Student&#45;&gt;Subject -->
<g id="edge20" class="edge"><title>Student&#45;&gt;Subject</title>
<path fill="none" stroke="#241de7" d="M908.059,-601.293C896.923,-521.514 881.05,-407.803 870.64,-333.221"/>
<polygon fill="#241de7" stroke="#241de7" points="908.072,-601.386 904.998,-611.912 908.763,-606.338 909.455,-611.29 909.455,-611.29 909.455,-611.29 908.763,-606.338 913.911,-610.668 908.072,-601.386 908.072,-601.386"/>
<polygon fill="#241de7" stroke="#241de7" points="870.59,-332.869 873.665,-322.343 869.899,-327.917 869.208,-322.965 869.208,-322.965 869.208,-322.965 869.899,-327.917 864.751,-323.587 870.59,-332.869 870.59,-332.869"/>
</g>
<!-- Student&#45;&gt;Ticket -->
<g id="edge21" class="edge"><title>Student&#45;&gt;Ticket</title>
<path fill="none" stroke="#e9509b" d="M992.994,-608.985C1006.9,-592.568 1021.48,-575.347 1035.43,-558.871"/>
<ellipse fill="none" stroke="#e9509b" cx="990.131" cy="-612.366" rx="4.00002" ry="4.00002"/>
<polygon fill="#e9509b" stroke="#e9509b" points="1035.76,-558.481 1045.66,-553.758 1038.99,-554.666 1042.23,-550.85 1042.23,-550.85 1042.23,-550.85 1038.99,-554.666 1038.79,-547.942 1035.76,-558.481 1035.76,-558.481"/>
</g>
<!-- Subject&#45;&gt;Attend -->
<g id="edge23" class="edge"><title>Subject&#45;&gt;Attend</title>
<path fill="none" stroke="#5626aa" d="M895.779,-181.559C904.573,-163.507 913.939,-144.282 922.566,-126.575"/>
<ellipse fill="none" stroke="#5626aa" cx="893.915" cy="-185.386" rx="4.00002" ry="4.00002"/>
<polygon fill="#5626aa" stroke="#5626aa" points="922.623,-126.458 931.048,-119.439 924.813,-121.963 927.003,-117.468 927.003,-117.468 927.003,-117.468 924.813,-121.963 922.957,-115.497 922.623,-126.458 922.623,-126.458"/>
</g>
<!-- Ticket&#45;&gt;FollowUp -->
<g id="edge27" class="edge"><title>Ticket&#45;&gt;FollowUp</title>
<path fill="none" stroke="#466fc0" d="M1157.63,-379.934C1164.74,-366.757 1172.04,-353.235 1179.08,-340.203"/>
<ellipse fill="none" stroke="#466fc0" cx="1155.53" cy="-383.824" rx="4.00002" ry="4.00002"/>
<polygon fill="#466fc0" stroke="#466fc0" points="1179.15,-340.069 1187.86,-333.407 1181.53,-335.669 1183.9,-331.269 1183.9,-331.269 1183.9,-331.269 1181.53,-335.669 1179.94,-329.131 1179.15,-340.069 1179.15,-340.069"/>
</g>
<!-- Ticket&#45;&gt;TicketStatus -->
<g id="edge26" class="edge"><title>Ticket&#45;&gt;TicketStatus</title>
<path fill="none" stroke="#854550" d="M1034.6,-443.676C923.854,-404.492 715.947,-330.93 596.864,-288.796"/>
<ellipse fill="none" stroke="#854550" cx="1038.5" cy="-445.057" rx="4.00001" ry="4.00001"/>
<polygon fill="#854550" stroke="#854550" points="596.816,-288.779 588.889,-281.201 592.102,-287.111 587.388,-285.443 587.388,-285.443 587.388,-285.443 592.102,-287.111 585.887,-289.685 596.816,-288.779 596.816,-288.779"/>
</g>
<!-- Ticket&#45;&gt;PublicActivity::Activity -->
<g id="edge25" class="edge"><title>Ticket&#45;&gt;PublicActivity::Activity</title>
<path fill="none" stroke="#8d6bc7" d="M1091.42,-379.258C1083.21,-319.359 1078.86,-239.729 1097.46,-172 1106.45,-139.269 1127.77,-106.422 1143.87,-84.8446"/>
<ellipse fill="none" stroke="#8d6bc7" cx="1091.98" cy="-383.243" rx="4.00001" ry="4.00001"/>
<polygon fill="#8d6bc7" stroke="#8d6bc7" points="1143.89,-84.8176 1153.54,-79.6077 1146.93,-80.8459 1149.97,-76.8741 1149.97,-76.8741 1149.97,-76.8741 1146.93,-80.8459 1146.39,-74.1405 1143.89,-84.8176 1143.89,-84.8176"/>
<text text-anchor="middle" x="1122.27" y="-250.4" font-family="Times,serif" font-size="14.00">activities</text>
</g>
<!-- PaperTrail::Version -->
<g id="node20" class="node"><title>PaperTrail::Version</title>
<ellipse fill="none" stroke="black" cx="507" cy="-59" rx="85.9894" ry="18"/>
<text text-anchor="middle" x="507" y="-53.4" font-family="Times,serif" font-size="14.00">PaperTrail::Version</text>
</g>
<!-- TicketStatus&#45;&gt;PaperTrail::Version -->
<g id="edge29" class="edge"><title>TicketStatus&#45;&gt;PaperTrail::Version</title>
<path fill="none" stroke="#d141e9" d="M507,-163.942C507,-136.095 507,-107.544 507,-87.4286"/>
<ellipse fill="none" stroke="#d141e9" cx="507" cy="-168.302" rx="4" ry="4"/>
<polygon fill="#d141e9" stroke="#d141e9" points="507,-87.1794 511.5,-77.1793 507,-82.1794 507,-77.1794 507,-77.1794 507,-77.1794 507,-82.1794 502.5,-77.1794 507,-87.1794 507,-87.1794"/>
<text text-anchor="middle" x="530.331" y="-139.4" font-family="Times,serif" font-size="14.00">versions</text>
</g>
<!-- User -->
<g id="node16" class="node"><title>User</title>
<path fill="none" stroke="black" d="M879.722,-960.6C879.722,-960.6 1060.28,-960.6 1060.28,-960.6 1066.28,-960.6 1072.28,-966.6 1072.28,-972.6 1072.28,-972.6 1072.28,-1233.4 1072.28,-1233.4 1072.28,-1239.4 1066.28,-1245.4 1060.28,-1245.4 1060.28,-1245.4 879.722,-1245.4 879.722,-1245.4 873.722,-1245.4 867.722,-1239.4 867.722,-1233.4 867.722,-1233.4 867.722,-972.6 867.722,-972.6 867.722,-966.6 873.722,-960.6 879.722,-960.6"/>
<text text-anchor="middle" x="970" y="-1227.4" font-family="Times,serif" font-size="14.00">User</text>
<polyline fill="none" stroke="black" points="867.722,-1220.6 1072.28,-1220.6 "/>
<text text-anchor="start" x="875.722" y="-1202.6" font-family="Times,serif" font-size="14.00">id :integer</text>
<text text-anchor="start" x="875.722" y="-1185.8" font-family="Times,serif" font-size="14.00">email :string</text>
<text text-anchor="start" x="875.722" y="-1169" font-family="Times,serif" font-size="14.00">user_type :string</text>
<text text-anchor="start" x="875.722" y="-1152.2" font-family="Times,serif" font-size="14.00">role :string</text>
<text text-anchor="start" x="875.722" y="-1135.4" font-family="Times,serif" font-size="14.00">encrypted_password :string</text>
<text text-anchor="start" x="875.722" y="-1118.6" font-family="Times,serif" font-size="14.00">reset_password_token :string</text>
<text text-anchor="start" x="875.722" y="-1101.8" font-family="Times,serif" font-size="14.00">reset_password_sent_at :datetime</text>
<text text-anchor="start" x="875.722" y="-1085" font-family="Times,serif" font-size="14.00">remember_created_at :datetime</text>
<text text-anchor="start" x="875.722" y="-1068.2" font-family="Times,serif" font-size="14.00">sign_in_count :integer</text>
<text text-anchor="start" x="875.722" y="-1051.4" font-family="Times,serif" font-size="14.00">current_sign_in_at :datetime</text>
<text text-anchor="start" x="875.722" y="-1034.6" font-family="Times,serif" font-size="14.00">last_sign_in_at :datetime</text>
<text text-anchor="start" x="875.722" y="-1017.8" font-family="Times,serif" font-size="14.00">current_sign_in_ip :string</text>
<text text-anchor="start" x="875.722" y="-1001" font-family="Times,serif" font-size="14.00">last_sign_in_ip :string</text>
<text text-anchor="start" x="875.722" y="-984.2" font-family="Times,serif" font-size="14.00">created_at :datetime</text>
<text text-anchor="start" x="875.722" y="-967.4" font-family="Times,serif" font-size="14.00">updated_at :datetime</text>
</g>
<!-- User&#45;&gt;Employee -->
<g id="edge32" class="edge"><title>User&#45;&gt;Employee</title>
<path fill="none" stroke="#f22eee" d="M862.617,-965.758C818.226,-909.437 767.754,-845.4 727.128,-793.856"/>
<ellipse fill="none" stroke="#f22eee" cx="865.174" cy="-969.002" rx="4.00002" ry="4.00002"/>
<ellipse fill="#f22eee" stroke="#f22eee" cx="724.447" cy="-790.454" rx="4.00002" ry="4.00002"/>
</g>
<!-- User&#45;&gt;FollowUp -->
<g id="edge33" class="edge"><title>User&#45;&gt;FollowUp</title>
<path fill="none" stroke="#1426f0" d="M1006.37,-952.407C1019.66,-904.885 1036.14,-852.593 1055,-806 1100.74,-693.025 1146.86,-680.086 1184,-564 1207.31,-491.139 1217.07,-404.402 1221.13,-341.739"/>
<ellipse fill="none" stroke="#1426f0" cx="1005.25" cy="-956.444" rx="4.00001" ry="4.00001"/>
<polygon fill="#1426f0" stroke="#1426f0" points="1221.15,-341.485 1226.25,-331.779 1221.45,-336.494 1221.76,-331.504 1221.76,-331.504 1221.76,-331.504 1221.45,-336.494 1217.27,-331.228 1221.15,-341.485 1221.15,-341.485"/>
</g>
<!-- User&#45;&gt;Student -->
<g id="edge31" class="edge"><title>User&#45;&gt;Student</title>
<path fill="none" stroke="#2cabd7" d="M951.937,-952.336C945.228,-896.75 937.827,-835.422 931.946,-786.693"/>
<ellipse fill="none" stroke="#2cabd7" cx="952.452" cy="-956.6" rx="4.00001" ry="4.00001"/>
<ellipse fill="#2cabd7" stroke="#2cabd7" cx="931.457" cy="-782.646" rx="4.00001" ry="4.00001"/>
</g>
<!-- Object -->
<g id="node17" class="node"><title>Object</title>
<ellipse fill="none" stroke="black" cx="261" cy="-1327" rx="36.1697" ry="18"/>
<text text-anchor="middle" x="261" y="-1321.4" font-family="Times,serif" font-size="14.00">Object</text>
</g>
<!-- Object&#45;&gt;Ability -->
<g id="edge1" class="edge"><title>Object&#45;&gt;Ability</title>
<path fill="none" stroke="black" d="M261,-1308.95C261,-1271.21 261,-1180.26 261,-1133.24"/>
<polyline fill="none" stroke="black" points="261,-1128.01 261,-1133.01 "/>
</g>
<!-- ActiveRecord::Base -->
<g id="node18" class="node"><title>ActiveRecord::Base</title>
<ellipse fill="none" stroke="black" cx="821" cy="-1327" rx="88.2033" ry="18"/>
<text text-anchor="middle" x="821" y="-1321.4" font-family="Times,serif" font-size="14.00">ActiveRecord::Base</text>
</g>
<!-- ActiveRecord::Base&#45;&gt;Attend -->
<g id="edge5" class="edge"><title>ActiveRecord::Base&#45;&gt;Attend</title>
<path fill="none" stroke="black" d="M886.801,-1314.86C955.919,-1301.66 1057.78,-1277.44 1081,-1246 1118.76,-1194.88 1113.78,-1014.45 1081,-960 1072.18,-945.352 1056.56,-956.176 1047,-942 1021.83,-904.677 968.953,-180.741 964,-136 963.527,-131.729 963.03,-127.324 962.523,-122.887"/>
<polyline fill="none" stroke="black" points="961.923,-117.669 962.494,-122.637 "/>
</g>
<!-- ActiveRecord::Base&#45;&gt;Employee -->
<g id="edge6" class="edge"><title>ActiveRecord::Base&#45;&gt;Employee</title>
<path fill="none" stroke="black" d="M743.139,-1318.4C695.872,-1309.32 639.037,-1289.44 609,-1246 559.804,-1174.85 600.472,-930.172 628.663,-792.346"/>
<polyline fill="none" stroke="black" points="629.744,-787.083 628.738,-791.981 "/>
</g>
<!-- ActiveRecord::Base&#45;&gt;EmployeeDepartment -->
<g id="edge8" class="edge"><title>ActiveRecord::Base&#45;&gt;EmployeeDepartment</title>
<path fill="none" stroke="black" d="M811.399,-1308.95C793.419,-1277.02 753.985,-1206.98 726.238,-1157.7"/>
<polyline fill="none" stroke="black" points="723.759,-1153.3 726.212,-1157.66 "/>
</g>
<!-- ActiveRecord::Base&#45;&gt;EmployeePosition -->
<g id="edge10" class="edge"><title>ActiveRecord::Base&#45;&gt;EmployeePosition</title>
<path fill="none" stroke="black" d="M735.166,-1322.69C684.18,-1316.72 620.92,-1301.86 576,-1266 542.014,-1238.87 521.11,-1193.78 509.071,-1158.05"/>
<polyline fill="none" stroke="black" points="507.503,-1153.29 509.069,-1158.04 "/>
</g>
<!-- ActiveRecord::Base&#45;&gt;FollowUp -->
<g id="edge12" class="edge"><title>ActiveRecord::Base&#45;&gt;FollowUp</title>
<path fill="none" stroke="black" d="M903.147,-1320.26C1004.3,-1311.36 1167.59,-1290.4 1207,-1246 1250.22,-1197.31 1243,-1169.11 1243,-1104 1243,-1104 1243,-1104 1243,-470 1243,-425.764 1238.88,-376.564 1234.48,-336.604"/>
<polyline fill="none" stroke="black" points="1233.89,-331.279 1234.44,-336.248 "/>
</g>
<!-- ActiveRecord::Base&#45;&gt;Priority -->
<g id="edge14" class="edge"><title>ActiveRecord::Base&#45;&gt;Priority</title>
<path fill="none" stroke="black" d="M903.559,-1320.36C980.583,-1313.2 1087.49,-1297.73 1114,-1266 1188.48,-1176.84 1167.42,-1032.21 1145.27,-946.082"/>
<polyline fill="none" stroke="black" points="1143.94,-941.005 1145.2,-945.843 "/>
</g>
<!-- ActiveRecord::Base&#45;&gt;Status -->
<g id="edge18" class="edge"><title>ActiveRecord::Base&#45;&gt;Status</title>
<path fill="none" stroke="black" d="M732.207,-1326.42C614.122,-1325.03 414.297,-1315.19 363,-1266 315.548,-1220.5 301.055,-1025.56 296.751,-929.262"/>
<polyline fill="none" stroke="black" points="296.53,-924.189 296.748,-929.184 "/>
</g>
<!-- ActiveRecord::Base&#45;&gt;Student -->
<g id="edge22" class="edge"><title>ActiveRecord::Base&#45;&gt;Student</title>
<path fill="none" stroke="black" d="M822.009,-1308.74C825.252,-1256.14 836.533,-1093.23 859,-960 869.011,-900.634 884.491,-834.705 897.478,-783.582"/>
<polyline fill="none" stroke="black" points="898.726,-778.682 897.492,-783.527 "/>
</g>
<!-- ActiveRecord::Base&#45;&gt;Subject -->
<g id="edge24" class="edge"><title>ActiveRecord::Base&#45;&gt;Subject</title>
<path fill="none" stroke="black" d="M820.546,-1308.9C820.259,-1296.45 819.95,-1279.18 820,-1264 820.444,-1128.89 817.908,-1095.05 822,-960 825.681,-838.506 846.579,-481.46 855.72,-328.207"/>
<polyline fill="none" stroke="black" points="856.04,-322.842 855.742,-327.833 "/>
</g>
<!-- ActiveRecord::Base&#45;&gt;Ticket -->
<g id="edge28" class="edge"><title>ActiveRecord::Base&#45;&gt;Ticket</title>
<path fill="none" stroke="black" d="M902.004,-1319.66C993.801,-1310.45 1134.32,-1289.47 1162,-1246 1267.28,-1080.7 1214.53,-1000.56 1191,-806 1180.73,-721.077 1156.27,-626.599 1136.72,-559.858"/>
<polyline fill="none" stroke="black" points="1135.21,-554.699 1136.62,-559.496 "/>
</g>
<!-- ActiveRecord::Base&#45;&gt;TicketStatus -->
<g id="edge30" class="edge"><title>ActiveRecord::Base&#45;&gt;TicketStatus</title>
<path fill="none" stroke="black" d="M739.987,-1319.69C636.445,-1310.01 465.054,-1288.04 419,-1246 370.391,-1201.63 377,-1169.81 377,-1104 377,-1104 377,-1104 377,-470 377,-428.248 376.98,-415.168 396,-378 403.414,-363.511 413.043,-349.467 423.529,-336.389"/>
<polyline fill="none" stroke="black" points="426.809,-332.362 423.651,-336.238 "/>
</g>
<!-- ActiveRecord::Base&#45;&gt;User -->
<g id="edge34" class="edge"><title>ActiveRecord::Base&#45;&gt;User</title>
<path fill="none" stroke="black" d="M832.444,-1308.95C841.882,-1294.89 856.277,-1273.44 872.259,-1249.63"/>
<polyline fill="none" stroke="black" points="875.048,-1245.47 872.261,-1249.62 "/>
</g>
</g>
</svg>
