<?xml version="1.0" encoding="UTF-8" standalone="no"?>
<!DOCTYPE svg PUBLIC "-//W3C//DTD SVG 1.1//EN"
 "http://www.w3.org/Graphics/SVG/1.1/DTD/svg11.dtd">
<!-- Generated by graphviz version 2.34.0 (20140102.1042)
 -->
<!-- Title: models_diagram Pages: 1 -->
<svg width="1187pt" height="514pt"
 viewBox="0.00 0.00 1187.00 514.00" xmlns="http://www.w3.org/2000/svg" xmlns:xlink="http://www.w3.org/1999/xlink">
<g id="graph0" class="graph" transform="scale(1 1) rotate(0) translate(4 510)">
<title>models_diagram</title>
<polygon fill="white" stroke="white" points="-4,4 -4,-510 1183,-510 1183,4 -4,4"/>
<!-- _diagram_info -->
<g id="node1" class="node"><title>_diagram_info</title>
<text text-anchor="start" x="7.31226" y="-489" font-family="Times,serif" font-size="13.00">Models diagram</text>
<text text-anchor="start" x="7.31226" y="-473.4" font-family="Times,serif" font-size="13.00">Date: Jan 28 2014 &#45; 15:59</text>
<text text-anchor="start" x="7.31226" y="-457.8" font-family="Times,serif" font-size="13.00">Migration version: 20140128094845</text>
<text text-anchor="start" x="7.31226" y="-442.2" font-family="Times,serif" font-size="13.00">Generated by RailRoady 1.1.1</text>
<text text-anchor="start" x="7.31226" y="-426.6" font-family="Times,serif" font-size="13.00">http://railroady.prestonlee.com</text>
</g>
<!-- Ability -->
<g id="node2" class="node"><title>Ability</title>
<polygon fill="none" stroke="black" points="288.255,-382 233.745,-382 233.745,-346 288.255,-346 288.255,-382"/>
<text text-anchor="middle" x="261" y="-358.4" font-family="Times,serif" font-size="14.00">Ability</text>
</g>
<!-- Advisor -->
<g id="node3" class="node"><title>Advisor</title>
<ellipse fill="none" stroke="black" cx="701" cy="-182" rx="42.2295" ry="18"/>
<text text-anchor="middle" x="701" y="-176.4" font-family="Times,serif" font-size="14.00">Advisor</text>
</g>
<!-- Subject -->
<g id="node13" class="node"><title>Subject</title>
<ellipse fill="none" stroke="black" cx="821" cy="-108" rx="40.0039" ry="18"/>
<text text-anchor="middle" x="821" y="-102.4" font-family="Times,serif" font-size="14.00">Subject</text>
</g>
<!-- Advisor&#45;&gt;Subject -->
<g id="edge2" class="edge"><title>Advisor&#45;&gt;Subject</title>
<path fill="none" stroke="#fad05f" d="M731.463,-162.722C749.099,-152.14 771.272,-138.837 789.14,-128.116"/>
<ellipse fill="none" stroke="#fad05f" cx="727.852" cy="-164.889" rx="4.00002" ry="4.00002"/>
<polygon fill="#fad05f" stroke="#fad05f" points="789.47,-127.918 800.36,-126.632 793.757,-125.346 798.045,-122.773 798.045,-122.773 798.045,-122.773 793.757,-125.346 795.729,-118.914 789.47,-127.918 789.47,-127.918"/>
</g>
<!-- TicketStatus -->
<g id="node15" class="node"><title>TicketStatus</title>
<ellipse fill="none" stroke="black" cx="611" cy="-108" rx="58.4657" ry="18"/>
<text text-anchor="middle" x="611" y="-102.4" font-family="Times,serif" font-size="14.00">TicketStatus</text>
</g>
<!-- Advisor&#45;&gt;TicketStatus -->
<g id="edge3" class="edge"><title>Advisor&#45;&gt;TicketStatus</title>
<path fill="none" stroke="#458160" d="M675.288,-160.43C663.968,-151.374 650.639,-140.711 639.062,-131.449"/>
<ellipse fill="none" stroke="#458160" cx="678.79" cy="-163.232" rx="4.00002" ry="4.00002"/>
<polygon fill="#458160" stroke="#458160" points="638.804,-131.243 633.806,-121.482 634.899,-128.119 630.995,-124.996 630.995,-124.996 630.995,-124.996 634.899,-128.119 628.184,-128.51 638.804,-131.243 638.804,-131.243"/>
</g>
<!-- Attend -->
<g id="node4" class="node"><title>Attend</title>
<ellipse fill="none" stroke="black" cx="893" cy="-18" rx="36.9811" ry="18"/>
<text text-anchor="middle" x="893" y="-12.4" font-family="Times,serif" font-size="14.00">Attend</text>
</g>
<!-- Employee -->
<g id="node5" class="node"><title>Employee</title>
<ellipse fill="none" stroke="black" cx="641" cy="-256" rx="50.2819" ry="18"/>
<text text-anchor="middle" x="641" y="-250.4" font-family="Times,serif" font-size="14.00">Employee</text>
</g>
<!-- Employee&#45;&gt;Advisor -->
<g id="edge4" class="edge"><title>Employee&#45;&gt;Advisor</title>
<path fill="none" stroke="black" d="M654.615,-238.662C663.36,-228.168 674.785,-214.458 684.108,-203.27"/>
<polyline fill="none" stroke="black" points="687.439,-199.273 684.238,-203.114 "/>
</g>
<!-- Staff -->
<g id="node10" class="node"><title>Staff</title>
<ellipse fill="none" stroke="black" cx="611" cy="-182" rx="29.4567" ry="18"/>
<text text-anchor="middle" x="611" y="-176.4" font-family="Times,serif" font-size="14.00">Staff</text>
</g>
<!-- Employee&#45;&gt;Staff -->
<g id="edge16" class="edge"><title>Employee&#45;&gt;Staff</title>
<path fill="none" stroke="black" d="M633.89,-237.937C629.743,-227.984 624.471,-215.331 620.032,-204.678"/>
<polyline fill="none" stroke="black" points="618.059,-199.941 619.982,-204.556 "/>
</g>
<!-- EmployeeDepartment -->
<g id="node6" class="node"><title>EmployeeDepartment</title>
<ellipse fill="none" stroke="black" cx="705" cy="-364" rx="95.1573" ry="18"/>
<text text-anchor="middle" x="705" y="-358.4" font-family="Times,serif" font-size="14.00">EmployeeDepartment</text>
</g>
<!-- EmployeeDepartment&#45;&gt;Employee -->
<g id="edge7" class="edge"><title>EmployeeDepartment&#45;&gt;Employee</title>
<path fill="none" stroke="#4d244a" d="M690.518,-339.014C680.359,-322.188 666.795,-299.723 656.432,-282.559"/>
<ellipse fill="none" stroke="#4d244a" cx="692.65" cy="-342.545" rx="4.00002" ry="4.00002"/>
<polygon fill="#4d244a" stroke="#4d244a" points="656.215,-282.2 654.898,-271.313 653.631,-277.919 651.046,-273.639 651.046,-273.639 651.046,-273.639 653.631,-277.919 647.194,-275.965 656.215,-282.2 656.215,-282.2"/>
</g>
<!-- EmployeePosition -->
<g id="node7" class="node"><title>EmployeePosition</title>
<ellipse fill="none" stroke="black" cx="471" cy="-364" rx="81.2775" ry="18"/>
<text text-anchor="middle" x="471" y="-358.4" font-family="Times,serif" font-size="14.00">EmployeePosition</text>
</g>
<!-- EmployeePosition&#45;&gt;Employee -->
<g id="edge9" class="edge"><title>EmployeePosition&#45;&gt;Employee</title>
<path fill="none" stroke="#360522" d="M497.722,-341.03C516.457,-326.188 542.445,-306.696 567,-292 577.575,-285.671 589.477,-279.614 600.593,-274.37"/>
<ellipse fill="none" stroke="#360522" cx="494.288" cy="-343.774" rx="4.00002" ry="4.00002"/>
<polygon fill="#360522" stroke="#360522" points="600.62,-274.358 611.585,-274.255 605.16,-272.264 609.7,-270.169 609.7,-270.169 609.7,-270.169 605.16,-272.264 607.815,-266.083 600.62,-274.358 600.62,-274.358"/>
</g>
<!-- FollowUp -->
<g id="node8" class="node"><title>FollowUp</title>
<ellipse fill="none" stroke="black" cx="1129" cy="-108" rx="50.3102" ry="18"/>
<text text-anchor="middle" x="1129" y="-102.4" font-family="Times,serif" font-size="14.00">FollowUp</text>
</g>
<!-- PublicActivity::Activity -->
<g id="node19" class="node"><title>PublicActivity::Activity</title>
<ellipse fill="none" stroke="black" cx="1072" cy="-18" rx="104.071" ry="18"/>
<text text-anchor="middle" x="1072" y="-12.4" font-family="Times,serif" font-size="14.00">PublicActivity::Activity</text>
</g>
<!-- FollowUp&#45;&gt;PublicActivity::Activity -->
<g id="edge11" class="edge"><title>FollowUp&#45;&gt;PublicActivity::Activity</title>
<path fill="none" stroke="#b22da2" d="M1113.49,-83.0617C1105.72,-71.0515 1096.29,-56.5039 1088.39,-44.3091"/>
<ellipse fill="none" stroke="#b22da2" cx="1115.84" cy="-86.6755" rx="4.00002" ry="4.00002"/>
<polygon fill="#b22da2" stroke="#b22da2" points="1088.39,-44.3084 1086.73,-33.4688 1085.67,-40.1118 1082.96,-35.9152 1082.96,-35.9152 1082.96,-35.9152 1085.67,-40.1118 1079.18,-38.3616 1088.39,-44.3084 1088.39,-44.3084"/>
<text text-anchor="middle" x="1130.27" y="-57.4" font-family="Times,serif" font-size="14.00">activities</text>
</g>
<!-- Priority -->
<g id="node9" class="node"><title>Priority</title>
<ellipse fill="none" stroke="black" cx="1036" cy="-310" rx="40.3171" ry="18"/>
<text text-anchor="middle" x="1036" y="-304.4" font-family="Times,serif" font-size="14.00">Priority</text>
</g>
<!-- Ticket -->
<g id="node14" class="node"><title>Ticket</title>
<ellipse fill="none" stroke="black" cx="1011" cy="-182" rx="35.0524" ry="18"/>
<text text-anchor="middle" x="1011" y="-176.4" font-family="Times,serif" font-size="14.00">Ticket</text>
</g>
<!-- Priority&#45;&gt;Ticket -->
<g id="edge13" class="edge"><title>Priority&#45;&gt;Ticket</title>
<path fill="none" stroke="#99c349" d="M1031.06,-284.113C1026.83,-262.774 1020.74,-232.089 1016.38,-210.127"/>
<ellipse fill="none" stroke="#99c349" cx="1031.85" cy="-288.084" rx="4.00001" ry="4.00001"/>
<polygon fill="#99c349" stroke="#99c349" points="1016.34,-209.935 1018.81,-199.25 1015.37,-205.03 1014.4,-200.126 1014.4,-200.126 1014.4,-200.126 1015.37,-205.03 1009.98,-201.002 1016.34,-209.935 1016.34,-209.935"/>
</g>
<!-- Staff&#45;&gt;TicketStatus -->
<g id="edge15" class="edge"><title>Staff&#45;&gt;TicketStatus</title>
<path fill="none" stroke="#4aa241" d="M611,-155.792C611,-149.58 611,-142.896 611,-136.579"/>
<ellipse fill="none" stroke="#4aa241" cx="611" cy="-159.937" rx="4" ry="4"/>
<polygon fill="#4aa241" stroke="#4aa241" points="611,-136.441 615.5,-126.441 611,-131.441 611,-126.441 611,-126.441 611,-126.441 611,-131.441 606.5,-126.441 611,-136.441 611,-136.441"/>
</g>
<!-- Status -->
<g id="node11" class="node"><title>Status</title>
<ellipse fill="none" stroke="black" cx="311" cy="-310" rx="34.4683" ry="18"/>
<text text-anchor="middle" x="311" y="-304.4" font-family="Times,serif" font-size="14.00">Status</text>
</g>
<!-- Status&#45;&gt;TicketStatus -->
<g id="edge17" class="edge"><title>Status&#45;&gt;TicketStatus</title>
<path fill="none" stroke="#a4aaf9" d="M308.386,-283.778C306.133,-247.186 308.052,-179.842 347,-144 374.627,-118.576 473.458,-111.324 542.026,-109.419"/>
<ellipse fill="none" stroke="#a4aaf9" cx="308.696" cy="-287.965" rx="4" ry="4"/>
<polygon fill="#a4aaf9" stroke="#a4aaf9" points="542.336,-109.412 552.443,-113.665 547.335,-109.289 552.333,-109.167 552.333,-109.167 552.333,-109.167 547.335,-109.289 552.223,-104.668 542.336,-109.412 542.336,-109.412"/>
</g>
<!-- Student -->
<g id="node12" class="node"><title>Student</title>
<ellipse fill="none" stroke="black" cx="886" cy="-256" rx="40.3171" ry="18"/>
<text text-anchor="middle" x="886" y="-250.4" font-family="Times,serif" font-size="14.00">Student</text>
</g>
<!-- Student&#45;&gt;Attend -->
<g id="edge19" class="edge"><title>Student&#45;&gt;Attend</title>
<path fill="none" stroke="#763e42" d="M886.755,-229.558C888.084,-184.756 890.829,-92.1835 892.194,-46.1787"/>
<ellipse fill="none" stroke="#763e42" cx="886.633" cy="-233.648" rx="4" ry="4"/>
<polygon fill="#763e42" stroke="#763e42" points="892.197,-46.0564 896.992,-36.1943 892.346,-41.0586 892.494,-36.0608 892.494,-36.0608 892.494,-36.0608 892.346,-41.0586 887.996,-35.9273 892.197,-46.0564 892.197,-46.0564"/>
</g>
<!-- Student&#45;&gt;Subject -->
<g id="edge20" class="edge"><title>Student&#45;&gt;Subject</title>
<path fill="none" stroke="#1138c8" d="M874.383,-228.908C862.632,-202.512 844.562,-161.924 832.76,-135.414"/>
<polygon fill="#1138c8" stroke="#1138c8" points="874.476,-229.116 874.433,-240.082 876.51,-233.684 878.544,-238.252 878.544,-238.252 878.544,-238.252 876.51,-233.684 882.655,-236.422 874.476,-229.116 874.476,-229.116"/>
<polygon fill="#1138c8" stroke="#1138c8" points="832.637,-135.138 832.681,-124.172 830.603,-130.57 828.57,-126.002 828.57,-126.002 828.57,-126.002 830.603,-130.57 824.459,-127.833 832.637,-135.138 832.637,-135.138"/>
</g>
<!-- Student&#45;&gt;Ticket -->
<g id="edge21" class="edge"><title>Student&#45;&gt;Ticket</title>
<path fill="none" stroke="#9779fd" d="M916.746,-237.291C935.936,-226.237 960.566,-212.05 979.835,-200.951"/>
<ellipse fill="none" stroke="#9779fd" cx="913.272" cy="-239.291" rx="4.00002" ry="4.00002"/>
<polygon fill="#9779fd" stroke="#9779fd" points="979.879,-200.926 990.79,-199.834 984.212,-198.43 988.544,-195.935 988.544,-195.935 988.544,-195.935 984.212,-198.43 986.298,-192.035 979.879,-200.926 979.879,-200.926"/>
</g>
<!-- Subject&#45;&gt;Attend -->
<g id="edge23" class="edge"><title>Subject&#45;&gt;Attend</title>
<path fill="none" stroke="#1ac313" d="M839.367,-84.5519C849.747,-71.8645 862.726,-56.0021 873.315,-43.0592"/>
<ellipse fill="none" stroke="#1ac313" cx="836.739" cy="-87.7636" rx="4.00002" ry="4.00002"/>
<polygon fill="#1ac313" stroke="#1ac313" points="873.545,-42.7778 883.361,-37.8878 876.712,-38.908 879.878,-35.0382 879.878,-35.0382 879.878,-35.0382 876.712,-38.908 876.395,-32.1886 873.545,-42.7778 873.545,-42.7778"/>
</g>
<!-- Ticket&#45;&gt;FollowUp -->
<g id="edge27" class="edge"><title>Ticket&#45;&gt;FollowUp</title>
<path fill="none" stroke="#cf1210" d="M1035.74,-160.978C1043.32,-155.208 1051.83,-149.1 1060,-144 1069.51,-138.064 1080.15,-132.278 1090.18,-127.176"/>
<ellipse fill="none" stroke="#cf1210" cx="1032.23" cy="-163.695" rx="4.00002" ry="4.00002"/>
<polygon fill="#cf1210" stroke="#cf1210" points="1090.21,-127.159 1101.17,-126.726 1094.69,-124.929 1099.16,-122.698 1099.16,-122.698 1099.16,-122.698 1094.69,-124.929 1097.15,-118.671 1090.21,-127.159 1090.21,-127.159"/>
</g>
<!-- Ticket&#45;&gt;TicketStatus -->
<g id="edge26" class="edge"><title>Ticket&#45;&gt;TicketStatus</title>
<path fill="none" stroke="#db01de" d="M970.072,-173.633C898.931,-160.828 752.223,-134.42 670.057,-119.63"/>
<ellipse fill="none" stroke="#db01de" cx="974.33" cy="-174.399" rx="4.00001" ry="4.00001"/>
<polygon fill="#db01de" stroke="#db01de" points="669.965,-119.614 660.92,-113.413 665.044,-118.728 660.123,-117.842 660.123,-117.842 660.123,-117.842 665.044,-118.728 659.326,-122.271 669.965,-119.614 669.965,-119.614"/>
</g>
<!-- Ticket&#45;&gt;PublicActivity::Activity -->
<g id="edge25" class="edge"><title>Ticket&#45;&gt;PublicActivity::Activity</title>
<path fill="none" stroke="#ad6247" d="M1009.76,-155.884C1009.67,-137.137 1011.36,-111.208 1019.46,-90 1025.93,-73.0791 1037.61,-56.6568 1048.32,-43.8756"/>
<ellipse fill="none" stroke="#ad6247" cx="1009.83" cy="-159.951" rx="4" ry="4"/>
<polygon fill="#ad6247" stroke="#ad6247" points="1048.59,-43.5729 1058.55,-38.9902 1051.87,-39.8033 1055.16,-36.0338 1055.16,-36.0338 1055.16,-36.0338 1051.87,-39.8033 1051.76,-33.0773 1048.59,-43.5729 1048.59,-43.5729"/>
<text text-anchor="middle" x="1044.27" y="-102.4" font-family="Times,serif" font-size="14.00">activities</text>
</g>
<!-- PaperTrail::Version -->
<g id="node20" class="node"><title>PaperTrail::Version</title>
<ellipse fill="none" stroke="black" cx="611" cy="-18" rx="85.9894" ry="18"/>
<text text-anchor="middle" x="611" y="-12.4" font-family="Times,serif" font-size="14.00">PaperTrail::Version</text>
</g>
<!-- TicketStatus&#45;&gt;PaperTrail::Version -->
<g id="edge29" class="edge"><title>TicketStatus&#45;&gt;PaperTrail::Version</title>
<path fill="none" stroke="#a2f49d" d="M611,-81.4625C611,-70.3968 611,-57.4281 611,-46.184"/>
<ellipse fill="none" stroke="#a2f49d" cx="611" cy="-85.614" rx="4" ry="4"/>
<polygon fill="#a2f49d" stroke="#a2f49d" points="611,-46.0504 615.5,-36.0504 611,-41.0504 611,-36.0504 611,-36.0504 611,-36.0504 611,-41.0504 606.5,-36.0505 611,-46.0504 611,-46.0504"/>
<text text-anchor="middle" x="634.331" y="-57.4" font-family="Times,serif" font-size="14.00">versions</text>
</g>
<!-- User -->
<g id="node16" class="node"><title>User</title>
<ellipse fill="none" stroke="black" cx="924" cy="-364" rx="28.9087" ry="18"/>
<text text-anchor="middle" x="924" y="-358.4" font-family="Times,serif" font-size="14.00">User</text>
</g>
<!-- User&#45;&gt;Employee -->
<g id="edge32" class="edge"><title>User&#45;&gt;Employee</title>
<path fill="none" stroke="#bc1416" d="M891.812,-350.944C840.175,-331.603 738.881,-293.662 682.093,-272.392"/>
<ellipse fill="none" stroke="#bc1416" cx="895.635" cy="-352.376" rx="4.00001" ry="4.00001"/>
<ellipse fill="#bc1416" stroke="#bc1416" cx="678.131" cy="-270.908" rx="4.00001" ry="4.00001"/>
</g>
<!-- User&#45;&gt;FollowUp -->
<g id="edge33" class="edge"><title>User&#45;&gt;FollowUp</title>
<path fill="none" stroke="#a7f6aa" d="M941.57,-341.23C979.577,-294.138 1069.22,-183.073 1109.18,-133.562"/>
<ellipse fill="none" stroke="#a7f6aa" cx="939.027" cy="-344.381" rx="4.00002" ry="4.00002"/>
<polygon fill="#a7f6aa" stroke="#a7f6aa" points="1109.31,-133.394 1119.09,-128.438 1112.45,-129.503 1115.59,-125.612 1115.59,-125.612 1115.59,-125.612 1112.45,-129.503 1112.09,-122.786 1109.31,-133.394 1109.31,-133.394"/>
</g>
<!-- User&#45;&gt;Student -->
<g id="edge31" class="edge"><title>User&#45;&gt;Student</title>
<path fill="none" stroke="#56c426" d="M915.135,-338.271C909.05,-321.296 901.003,-298.85 894.908,-281.849"/>
<ellipse fill="none" stroke="#56c426" cx="916.545" cy="-342.204" rx="4.00001" ry="4.00001"/>
<ellipse fill="#56c426" stroke="#56c426" cx="893.44" cy="-277.754" rx="4.00001" ry="4.00001"/>
</g>
<!-- Object -->
<g id="node17" class="node"><title>Object</title>
<ellipse fill="none" stroke="black" cx="261" cy="-463" rx="36.1697" ry="18"/>
<text text-anchor="middle" x="261" y="-457.4" font-family="Times,serif" font-size="14.00">Object</text>
</g>
<!-- Object&#45;&gt;Ability -->
<g id="edge1" class="edge"><title>Object&#45;&gt;Ability</title>
<path fill="none" stroke="black" d="M261,-444.658C261,-428.658 261,-404.811 261,-387.379"/>
<polyline fill="none" stroke="black" points="261,-382.192 261,-387.192 "/>
</g>
<!-- ActiveRecord::Base -->
<g id="node18" class="node"><title>ActiveRecord::Base</title>
<ellipse fill="none" stroke="black" cx="848" cy="-463" rx="88.2033" ry="18"/>
<text text-anchor="middle" x="848" y="-457.4" font-family="Times,serif" font-size="14.00">ActiveRecord::Base</text>
</g>
<!-- ActiveRecord::Base&#45;&gt;Attend -->
<g id="edge5" class="edge"><title>ActiveRecord::Base&#45;&gt;Attend</title>
<path fill="none" stroke="black" d="M886.264,-446.659C912.819,-433.745 946.162,-412.463 962,-382 993.508,-321.398 924.851,-110.435 900.87,-41.2001"/>
<polyline fill="none" stroke="black" points="899.089,-36.0826 900.732,-40.8049 "/>
</g>
<!-- ActiveRecord::Base&#45;&gt;Employee -->
<g id="edge6" class="edge"><title>ActiveRecord::Base&#45;&gt;Employee</title>
<path fill="none" stroke="black" d="M761.926,-458.847C705.945,-451.773 636.75,-432.469 600,-382 576.647,-349.929 603.863,-303.828 623.774,-277.504"/>
<polyline fill="none" stroke="black" points="626.898,-273.454 623.844,-277.413 "/>
</g>
<!-- ActiveRecord::Base&#45;&gt;EmployeeDepartment -->
<g id="edge8" class="edge"><title>ActiveRecord::Base&#45;&gt;EmployeeDepartment</title>
<path fill="none" stroke="black" d="M823.742,-445.545C798.884,-428.684 760.237,-402.469 733.832,-384.557"/>
<polyline fill="none" stroke="black" points="729.377,-381.535 733.515,-384.342 "/>
</g>
<!-- ActiveRecord::Base&#45;&gt;EmployeePosition -->
<g id="edge10" class="edge"><title>ActiveRecord::Base&#45;&gt;EmployeePosition</title>
<path fill="none" stroke="black" d="M781.969,-450.94C724.552,-440.604 639.438,-423.547 567,-402 548.378,-396.461 528.249,-388.949 511.256,-382.141"/>
<polyline fill="none" stroke="black" points="506.55,-380.241 511.187,-382.113 "/>
</g>
<!-- ActiveRecord::Base&#45;&gt;FollowUp -->
<g id="edge12" class="edge"><title>ActiveRecord::Base&#45;&gt;FollowUp</title>
<path fill="none" stroke="black" d="M918.433,-452.025C1001.96,-438.173 1130,-409.655 1130,-365 1130,-365 1130,-365 1130,-181 1130,-164.299 1129.73,-145.421 1129.47,-131.187"/>
<polyline fill="none" stroke="black" points="1129.37,-126.165 1129.47,-131.164 "/>
</g>
<!-- ActiveRecord::Base&#45;&gt;Priority -->
<g id="edge14" class="edge"><title>ActiveRecord::Base&#45;&gt;Priority</title>
<path fill="none" stroke="black" d="M906.047,-449.306C935.713,-440.312 970.601,-425.541 995,-402 1014.54,-383.144 1025.52,-353.271 1031.1,-332.936"/>
<polyline fill="none" stroke="black" points="1032.4,-327.984 1031.13,-332.82 "/>
</g>
<!-- ActiveRecord::Base&#45;&gt;Status -->
<g id="edge18" class="edge"><title>ActiveRecord::Base&#45;&gt;Status</title>
<path fill="none" stroke="black" d="M759.576,-462.019C633.31,-460.309 409.662,-450.296 347,-402 325.662,-385.554 316.946,-354.57 313.402,-333.366"/>
<polyline fill="none" stroke="black" points="312.608,-328.201 313.368,-333.143 "/>
</g>
<!-- ActiveRecord::Base&#45;&gt;Student -->
<g id="edge22" class="edge"><title>ActiveRecord::Base&#45;&gt;Student</title>
<path fill="none" stroke="black" d="M851.174,-444.874C858.034,-407.869 874.235,-320.468 881.876,-279.249"/>
<polyline fill="none" stroke="black" points="882.808,-274.221 881.896,-279.137 "/>
</g>
<!-- ActiveRecord::Base&#45;&gt;Subject -->
<g id="edge24" class="edge"><title>ActiveRecord::Base&#45;&gt;Subject</title>
<path fill="none" stroke="black" d="M846.698,-444.974C842.261,-386.972 827.735,-197.06 822.721,-131.498"/>
<polyline fill="none" stroke="black" points="822.321,-126.269 822.702,-131.254 "/>
</g>
<!-- ActiveRecord::Base&#45;&gt;Ticket -->
<g id="edge28" class="edge"><title>ActiveRecord::Base&#45;&gt;Ticket</title>
<path fill="none" stroke="black" d="M907.675,-449.615C966.916,-433.464 1052.47,-398.502 1078,-328 1094.83,-281.526 1055.75,-229.479 1030.45,-202.146"/>
<polyline fill="none" stroke="black" points="1026.83,-198.296 1030.25,-201.937 "/>
</g>
<!-- ActiveRecord::Base&#45;&gt;TicketStatus -->
<g id="edge30" class="edge"><title>ActiveRecord::Base&#45;&gt;TicketStatus</title>
<path fill="none" stroke="black" d="M759.526,-462.205C619.122,-460.111 361,-445.336 361,-365 361,-365 361,-365 361,-181 361,-141.744 476.266,-122.602 550.263,-114.359"/>
<polyline fill="none" stroke="black" points="555.517,-113.784 550.547,-114.328 "/>
</g>
<!-- ActiveRecord::Base&#45;&gt;User -->
<g id="edge34" class="edge"><title>ActiveRecord::Base&#45;&gt;User</title>
<path fill="none" stroke="black" d="M861.238,-445.104C874.411,-428.291 894.616,-402.503 908.524,-384.753"/>
<polyline fill="none" stroke="black" points="911.916,-380.424 908.832,-384.359 "/>
</g>
</g>
</svg>
